<?xml version="1.0" standalone="no"?><!DOCTYPE svg PUBLIC "-//W3C//DTD SVG 1.1//EN" "http://www.w3.org/Graphics/SVG/1.1/DTD/svg11.dtd"><svg t="1782105668234" class="icon" viewBox="0 0 1024 1024" version="1.1" xmlns="http://www.w3.org/2000/svg" p-id="171146" xmlns:xlink="http://www.w3.org/1999/xlink" width="200" height="200"><path d="M236.8 966.4c-25.6 0-57.6-6.4-83.2-19.2-57.6-32-96-102.4-128-217.6-19.2-64-19.2-140.8-12.8-230.4 6.4-70.4 19.2-140.8 44.8-217.6 38.4-128 89.6-224 89.6-230.4L160 25.6l25.6 12.8c6.4 0 89.6 57.6 192 153.6 51.2 64 102.4 115.2 140.8 172.8 51.2 70.4 83.2 140.8 102.4 204.8 32 115.2 32 192 0 249.6-38.4 64-108.8 83.2-192 102.4-12.8 0-19.2 6.4-32 6.4s-19.2 6.4-32 6.4c-44.8 19.2-89.6 32-128 32z m-57.6-864c-19.2 32-51.2 108.8-76.8 192-32 115.2-64 281.6-32 422.4C96 819.2 128 876.8 172.8 902.4 217.6 928 281.6 915.2 352 896c12.8 0 19.2-6.4 32-6.4s19.2-6.4 32-6.4c70.4-19.2 134.4-32 160-83.2 25.6-44.8 25.6-108.8 0-211.2-38.4-147.2-153.6-275.2-236.8-352-64-64-128-115.2-160-134.4z" fill="#1296db" p-id="171147"></path><path d="M748.8 1011.2c-51.2 0-108.8-25.6-160-57.6-6.4-6.4-19.2-6.4-25.6-12.8-6.4-6.4-19.2-6.4-25.6-12.8-64-32-121.6-57.6-153.6-108.8-38.4-57.6-32-128 12.8-230.4 0-12.8 6.4-32 12.8-44.8 6.4-12.8 19.2-19.2 32-12.8 12.8 6.4 19.2 19.2 12.8 32-6.4 12.8-12.8 32-19.2 44.8-51.2 108.8-32 160-19.2 185.6 25.6 38.4 76.8 64 134.4 89.6 6.4 6.4 19.2 6.4 25.6 12.8 6.4 6.4 19.2 6.4 25.6 12.8 64 32 121.6 64 172.8 44.8 44.8-12.8 89.6-70.4 134.4-160 64-128 64-300.8 51.2-416-6.4-89.6-25.6-166.4-32-204.8-64 32-243.2 115.2-371.2 249.6-6.4 6.4-25.6 6.4-32 0-6.4-19.2-6.4-32 6.4-38.4 89.6-89.6 198.4-153.6 268.8-198.4 83.2-44.8 140.8-70.4 140.8-70.4l25.6-12.8 6.4 25.6c0 6.4 32 102.4 44.8 243.2 6.4 76.8 6.4 153.6 0 217.6-6.4 83.2-25.6 160-57.6 224-51.2 108.8-102.4 166.4-166.4 185.6-12.8 6.4-32 12.8-44.8 12.8z" fill="#1296db" p-id="171148"></path></svg>
