<?xml version="1.0" standalone="no"?><!DOCTYPE svg PUBLIC "-//W3C//DTD SVG 1.1//EN" "http://www.w3.org/Graphics/SVG/1.1/DTD/svg11.dtd"><svg t="1782098726157" class="icon" viewBox="0 0 1024 1024" version="1.1" xmlns="http://www.w3.org/2000/svg" p-id="3695" xmlns:xlink="http://www.w3.org/1999/xlink" width="200" height="200"><path d="M119.540185 1.512369m63.015384 0l661.661539 0q63.015385 0 63.015384 63.015385l0 787.692308q0 63.015385-63.015384 63.015384l-661.661539 0q-63.015385 0-63.015384-63.015384l0-787.692308q0-63.015385 63.015384-63.015385Z" fill="#D1D3D4" p-id="3696"></path><path d="M844.217108 915.235446H182.555569a63.015385 63.015385 0 0 1-56.367261-34.816h774.396061A63.015385 63.015385 0 0 1 844.217108 915.235446z" fill="#9AAAF5" p-id="3697"></path><path d="M513.386338 1.512369h330.83077a63.015385 63.015385 0 0 1 63.015384 63.015385v787.692308a63.015385 63.015385 0 0 1-63.015384 63.015384H513.386338V1.512369z" fill="#BCBEC0" p-id="3698"></path><path d="M844.217108 915.235446H513.386338v-34.847508l387.213785 0.015754A63.015385 63.015385 0 0 1 844.217108 915.235446z" fill="#6578D0" p-id="3699"></path><path d="M261.3248 915.235446h157.538462v31.507692a63.015385 63.015385 0 0 1-63.015385 63.015385h-31.507692a63.015385 63.015385 0 0 1-63.015385-63.015385v-31.507692z" fill="#939598" p-id="3700"></path><path d="M607.909415 915.235446h157.538462v31.507692a63.015385 63.015385 0 0 1-63.015385 63.015385h-31.507692a63.015385 63.015385 0 0 1-63.015385-63.015385v-31.507692z" fill="#6D6E71" p-id="3701"></path><path d="M229.817108 174.804677m31.507692 0l504.123077 0q31.507692 0 31.507692 31.507692l0 94.523077q0 31.507692-31.507692 31.507692l-504.123077 0q-31.507692 0-31.507692-31.507692l0-94.523077q0-31.507692 31.507692-31.507692Z" fill="#9AAAF5" p-id="3702"></path><path d="M229.817108 379.604677m31.507692 0l504.123077 0q31.507692 0 31.507692 31.507692l0 94.523077q0 31.507692-31.507692 31.507692l-504.123077 0q-31.507692 0-31.507692-31.507692l0-94.523077q0-31.507692 31.507692-31.507692Z" fill="#9AAAF5" p-id="3703"></path><path d="M229.817108 584.404677m31.507692 0l504.123077 0q31.507692 0 31.507692 31.507692l0 94.523077q0 31.507692-31.507692 31.507692l-504.123077 0q-31.507692 0-31.507692-31.507692l0-94.523077q0-31.507692 31.507692-31.507692Z" fill="#9AAAF5" p-id="3704"></path><path d="M513.386338 174.804677h252.061539a31.507692 31.507692 0 0 1 31.507692 31.507692v94.523077a31.507692 31.507692 0 0 1-31.507692 31.507692H513.386338V174.804677zM513.386338 379.604677h252.061539a31.507692 31.507692 0 0 1 31.507692 31.507692v94.523077a31.507692 31.507692 0 0 1-31.507692 31.507692H513.386338V379.604677zM513.386338 584.404677h252.061539a31.507692 31.507692 0 0 1 31.507692 31.507692v94.523077a31.507692 31.507692 0 0 1-31.507692 31.507692H513.386338V584.404677z" fill="#6578D0" p-id="3705"></path><path d="M324.340185 253.573908m-31.507693 0a31.507692 31.507692 0 1 0 63.015385 0 31.507692 31.507692 0 1 0-63.015385 0Z" fill="#F9F9F9" p-id="3706"></path><path d="M324.340185 458.373908m-31.507693 0a31.507692 31.507692 0 1 0 63.015385 0 31.507692 31.507692 0 1 0-63.015385 0Z" fill="#F9F9F9" p-id="3707"></path><path d="M324.340185 663.173908m-31.507693 0a31.507692 31.507692 0 1 0 63.015385 0 31.507692 31.507692 0 1 0-63.015385 0Z" fill="#F9F9F9" p-id="3708"></path><path d="M418.863262 253.573908m-31.507693 0a31.507692 31.507692 0 1 0 63.015385 0 31.507692 31.507692 0 1 0-63.015385 0Z" fill="#F9F9F9" p-id="3709"></path><path d="M418.863262 458.373908m-31.507693 0a31.507692 31.507692 0 1 0 63.015385 0 31.507692 31.507692 0 1 0-63.015385 0Z" fill="#F9F9F9" p-id="3710"></path><path d="M418.863262 663.173908m-31.507693 0a31.507692 31.507692 0 1 0 63.015385 0 31.507692 31.507692 0 1 0-63.015385 0Z" fill="#F9F9F9" p-id="3711"></path></svg>
