<?xml version="1.0" standalone="no"?><!DOCTYPE svg PUBLIC "-//W3C//DTD SVG 1.1//EN" "http://www.w3.org/Graphics/SVG/1.1/DTD/svg11.dtd"><svg t="1782105406900" class="icon" viewBox="0 0 1024 1024" version="1.1" xmlns="http://www.w3.org/2000/svg" p-id="166632" xmlns:xlink="http://www.w3.org/1999/xlink" width="200" height="200"><path d="M857.6 554.666667c44.501333 0 81.066667 35.541333 81.066667 80v100.053333c0 34.218667-21.546667 63.36-51.84 79.445333-20.48 10.922667-35.242667 27.946667-41.258667 54.272-9.045333 39.552-42.496 70.229333-83.968 70.229334H262.4c-41.472 0-74.922667-30.677333-83.968-70.229334a77.994667 77.994667 0 0 0-41.258667-54.272C106.88 798.08 85.333333 768.938667 85.333333 734.72v-100.053333C85.333333 590.208 121.898667 554.666667 166.4 554.666667h691.2z m-4.266667 85.333333H170.666667v94.72c0-0.725333 1.194667 0.768 4.053333 2.645333l2.474667 1.450667c40.96 21.76 72.405333 58.026667 84.437333 110.592 0.682667 2.944 1.749333 3.925333 0.768 3.925333h499.2c-0.981333 0 0.085333-0.981333 0.768-3.925333a162.346667 162.346667 0 0 1 84.437333-110.592c4.650667-2.474667 6.528-4.992 6.528-4.096V640z m-170.666666 42.666667a42.666667 42.666667 0 0 1 0 85.333333H298.666667a42.666667 42.666667 0 0 1 0-85.333333h384zM264.021333 104.277333c23.466667-35.072 78.122667-18.432 78.122667 23.722667v213.376l4.181333 0.256a42.666667 42.666667 0 0 1 37.376 37.376L384 384a42.666667 42.666667 0 0 1-42.666667 42.666667l0.810667-0.042667V469.333333a42.666667 42.666667 0 0 1-37.674667 42.368L299.477333 512a42.666667 42.666667 0 0 1-42.666666-42.666667v-42.666666H128.170667a42.666667 42.666667 0 0 1-37.930667-62.293334l2.474667-4.096 171.306666-256z m-7.253333 164.181334L208.085333 341.333333h48.768V268.458667zM512 85.333333a128 128 0 0 1 95.402667 213.333334 128 128 0 1 1-190.805334 0A128 128 0 0 1 512 85.333333z m0 256a42.666667 42.666667 0 1 0 0 85.333334 42.666667 42.666667 0 0 0 0-85.333334z m0-170.666666a42.666667 42.666667 0 1 0 0 85.333333 42.666667 42.666667 0 0 0 0-85.333333z m256 170.666666a85.333333 85.333333 0 0 1-85.333333-85.333333V128a42.666667 42.666667 0 0 1 42.666666-42.666667h151.722667a42.666667 42.666667 0 0 1 0 85.333334H776.533333a8.533333 8.533333 0 0 0-8.533333 8.533333v68.266667c0 4.693333 3.84 8.533333 8.533333 8.533333h34.133334a128 128 0 0 1 0 256c-44.16 0-83.968-19.712-117.546667-56.576a42.666667 42.666667 0 0 1 63.018667-57.514667c18.304 20.053333 35.84 28.757333 54.528 28.757334a42.666667 42.666667 0 0 0 0-85.333334h-42.666667z" p-id="166633" fill="#1296db"></path></svg>
