<?xml version="1.0" standalone="no"?><!DOCTYPE svg PUBLIC "-//W3C//DTD SVG 1.1//EN" "http://www.w3.org/Graphics/SVG/1.1/DTD/svg11.dtd"><svg t="1782105396601" class="icon" viewBox="0 0 1024 1024" version="1.1" xmlns="http://www.w3.org/2000/svg" p-id="165574" xmlns:xlink="http://www.w3.org/1999/xlink" width="200" height="200"><path d="M539.8016 719.9232c-123.4944 0-203.8784-38.4-203.8784-207.872 0-156.16 77.4656-207.9744 198.656-207.9744 39.5776 0 74.496 5.2736 99.5328 14.592v98.4064a262.0416 262.0416 0 0 0-90.2656-15.1552c-58.2144 0-80.896 27.392-80.896 110.08 0 86.784 25.6 107.776 82.6368 107.776 30.3104 0 62.3104-3.5328 93.184-14.592v98.4576c-25.0368 9.3184-61.7472 16.2816-98.9696 16.2816z m159.7952-5.7856V309.9648h157.2352c127.5904 0 167.168 39.5776 167.168 143.872 0 113.5104-46.0288 150.2208-167.168 150.2208h-41.3184v110.08h-115.9168zM815.5136 512h24.4736c48.3328 0 65.792-12.8 65.792-55.296 0-44.9024-18.6368-57.7024-65.792-57.7024h-24.4736v112.9984z m-507.392-100.7616v-101.376H0v101.376h96.1024v302.848h115.3024V411.2896h96.6656z" p-id="165575" fill="#1296db"></path></svg>
