<?xml version="1.0" standalone="no"?><!DOCTYPE svg PUBLIC "-//W3C//DTD SVG 1.1//EN" "http://www.w3.org/Graphics/SVG/1.1/DTD/svg11.dtd"><svg t="1782104460662" class="icon" viewBox="0 0 1024 1024" version="1.1" xmlns="http://www.w3.org/2000/svg" p-id="138715" xmlns:xlink="http://www.w3.org/1999/xlink" width="200" height="200"><path d="M380.16 253.696v-58.048a64.64 64.64 0 0 1 22.272-47.68c14.08-12.672 33.28-19.84 53.248-19.968H632.32c19.968 0.128 39.104 7.296 53.248 19.968 14.144 12.608 22.144 29.76 22.272 47.68V476.16c0 8.704-3.84 17.024-10.688 23.168a38.848 38.848 0 0 1-25.856 9.6 38.848 38.848 0 0 1-25.856-9.6 31.104 31.104 0 0 1-10.688-23.168V195.648L455.68 193.472l-2.432 60.16c0 8.704-3.84 17.024-10.688 23.168a38.848 38.848 0 0 1-25.856 9.6 38.848 38.848 0 0 1-25.856-9.6 31.104 31.104 0 0 1-10.752-23.104z m505.152 576.384a38.912 38.912 0 0 1-25.856 9.6 38.848 38.848 0 0 1-25.856-9.6l-125.312-112.128v110.4a64.64 64.64 0 0 1-22.272 47.68c-14.144 12.672-33.28 19.84-53.312 19.968H455.68a80.768 80.768 0 0 1-53.248-19.968 64.704 64.704 0 0 1-22.336-47.68V424.704L202.624 266.304A31.168 31.168 0 0 1 192 243.072c0-8.768 3.968-17.088 10.88-23.232a39.04 39.04 0 0 1 25.984-9.472 39.04 39.04 0 0 1 25.92 9.728l187.776 168 254.528 227.776 188.16 168a31.104 31.104 0 0 1 10.752 23.104c0 8.704-3.84 17.024-10.688 23.104zM634.688 652.16l-181.44-161.92v338.176l179.008 2.176 2.432-178.432z" p-id="138716"></path></svg>
