<?xml version="1.0" standalone="no"?><!DOCTYPE svg PUBLIC "-//W3C//DTD SVG 1.1//EN" "http://www.w3.org/Graphics/SVG/1.1/DTD/svg11.dtd"><svg t="1782104186310" class="icon" viewBox="0 0 1024 1024" version="1.1" xmlns="http://www.w3.org/2000/svg" p-id="125776" xmlns:xlink="http://www.w3.org/1999/xlink" width="200" height="200"><path d="M426.624 266.624a32 32 0 1 0 0 64h170.752a32 32 0 0 0 0-64H426.624z" fill="#333333" p-id="125777"></path><path d="M540.48 53.376H553.984c43.072 0 68.8 0 95.616 9.984 25.472 9.536 44.288 25.216 74.688 50.56l6.336 5.312 93.76 78.144 7.296 6.08c40.96 34.048 66.048 54.912 81.216 87.296 15.168 32.448 15.168 65.28 15.104 118.72v166.272c0.128 146.624 0.192 228.992-46.848 293.76a245.12 245.12 0 0 1-54.272 54.272c-64.768 47.04-147.136 46.976-293.76 46.848h-42.24c-146.624 0.128-228.992 0.192-293.76-46.848a245.12 245.12 0 0 1-54.272-54.272c-47.04-64.768-46.976-147.136-46.848-293.76v-69.76-8.128c0-93.632 0-165.12 7.68-223.488 7.808-60.032 24.96-108.224 60.352-145.28l7.68-7.68c37.056-35.456 85.312-52.544 145.408-60.416 58.368-7.68 129.728-7.68 223.36-7.616zM627.2 123.392c-14.464-5.44-32.448-6.016-78.656-6.016-97.6 0-170.24 0.192-223.232 7.104-53.056 6.976-84.48 19.392-109.376 43.136l-5.76 5.76c-23.744 24.832-36.16 56.32-43.136 109.376-6.912 52.992-7.104 125.632-7.104 223.232v48.64c0 160 2.368 232.896 34.624 277.248 11.2 15.36 24.704 28.928 40.128 40.128 18.56 13.44 41.984 21.696 74.624 26.752v-95.104c0-36.864 0-65.6 3.392-90.88 3.584-26.88 12.416-51.84 30.976-70.4 18.56-18.56 43.52-27.392 70.4-30.976 25.28-3.392 54.016-3.392 90.88-3.392h13.952c36.864 0 65.6 0 90.88 3.392 26.88 3.584 51.84 12.416 70.4 30.976 18.56 18.56 27.392 43.52 30.976 70.4 3.392 25.28 3.392 54.016 3.392 90.88v95.104c32.64-5.12 56.128-13.312 74.624-26.752 15.36-11.2 28.928-24.704 40.128-40.128 32.256-44.352 34.624-117.248 34.624-277.248V418.624c0-58.944-1.024-83.456-9.152-100.736s-26.24-33.664-71.488-71.36L689.728 168.32c-34.176-28.544-48.832-39.936-62.464-44.992z m23.36 781.184v-93.952c0-40.256-0.128-69.76-2.752-89.344-2.624-19.648-6.4-27.2-12.864-33.664-6.4-6.4-14.08-10.112-33.664-12.8C581.76 672.32 552.32 672 512 672c-40.256 0-69.76 0.256-89.344 2.88-19.648 2.624-27.2 6.336-33.664 12.8-6.4 6.4-10.24 13.952-12.864 33.6-2.624 19.584-2.752 49.152-2.752 89.344v93.952c37.184 1.728 82.56 2.048 138.624 2.048 56.064 0 101.44-0.32 138.624-2.048z" fill="#333333" p-id="125778"></path></svg>
