<?xml version="1.0" standalone="no"?><!DOCTYPE svg PUBLIC "-//W3C//DTD SVG 1.1//EN" "http://www.w3.org/Graphics/SVG/1.1/DTD/svg11.dtd"><svg t="1782106827549" class="icon" viewBox="0 0 1024 1024" version="1.1" xmlns="http://www.w3.org/2000/svg" p-id="179116" xmlns:xlink="http://www.w3.org/1999/xlink" width="200" height="200"><path d="M512 64c247.424 0 448 200.576 448 448S759.424 960 512 960 64 759.424 64 512 264.576 64 512 64z m0 72.0128C304.3328 136.0128 135.9872 304.3072 135.9872 512c0 207.6672 168.3456 376.0128 376.0128 376.0128 207.6672 0 376.0128-168.3456 376.0128-376.0128 0-207.6672-168.3456-376.0128-376.0128-376.0128z m28.0064 112c4.4032 0 7.9872 3.584 7.9872 7.9872v241.1008l143.7952 143.7952c2.9696 2.944 3.1232 7.6544 0.4864 10.8032l-0.4864 0.512-39.5776 39.5776a7.9872 7.9872 0 0 1-11.3152 0l-154.368-154.3424a35.9936 35.9936 0 0 1-10.496-24.192L476.0064 512V256c0-4.4288 3.584-8.0128 7.9872-8.0128h56.0128z" fill="#1afa29" p-id="179117"></path></svg>
