<?xml version="1.0" standalone="no"?><!DOCTYPE svg PUBLIC "-//W3C//DTD SVG 1.1//EN" "http://www.w3.org/Graphics/SVG/1.1/DTD/svg11.dtd"><svg t="1782104383340" class="icon" viewBox="0 0 1024 1024" version="1.1" xmlns="http://www.w3.org/2000/svg" p-id="133829" xmlns:xlink="http://www.w3.org/1999/xlink" width="200" height="200"><path d="M180.032 176h-60.032a8 8 0 0 0-8 8v656c0 4.416 3.584 8 8 8h60.032a8 8 0 0 0 7.936-8V184a8 8 0 0 0-7.936-8z m723.968 0h-60.032a8 8 0 0 0-7.936 8v656c0 4.416 3.584 8 7.936 8h60.032a8 8 0 0 0 8-8V184a8 8 0 0 0-8-8zM785.28 504.32l-127.552-100.736a7.232 7.232 0 0 0-11.712 5.76v66.688H377.984v-62.848a7.232 7.232 0 0 0-11.712-5.696L238.72 508.288a7.168 7.168 0 0 0 0 11.328l127.488 100.8a7.232 7.232 0 0 0 11.712-5.76V548.096h267.968v62.72c0 6.08 7.04 9.472 11.712 5.76l127.488-100.8a7.232 7.232 0 0 0 0.192-11.392z" fill="#000000" fill-opacity=".65" p-id="133830"></path></svg>
