<?xml version="1.0" standalone="no"?><!DOCTYPE svg PUBLIC "-//W3C//DTD SVG 1.1//EN" "http://www.w3.org/Graphics/SVG/1.1/DTD/svg11.dtd"><svg t="1782102157914" class="icon" viewBox="0 0 1024 1024" version="1.1" xmlns="http://www.w3.org/2000/svg" p-id="81334" xmlns:xlink="http://www.w3.org/1999/xlink" width="200" height="200"><path d="M512.25 64.25c27.492 0 49.778 22.286 49.778 49.778v348.444h348.444c27.492 0 49.778 22.286 49.778 49.778 0 27.492-22.286 49.778-49.778 49.778H562.028v348.444c0 27.492-22.286 49.778-49.778 49.778-27.492 0-49.778-22.286-49.778-49.778V562.028H114.028c-27.492 0-49.778-22.286-49.778-49.778 0-27.492 22.286-49.778 49.778-49.778h348.444V114.028c0-27.492 22.286-49.778 49.778-49.778z" fill="#2c2c2c" p-id="81335"></path></svg>
