<?xml version="1.0" standalone="no"?><!DOCTYPE svg PUBLIC "-//W3C//DTD SVG 1.1//EN" "http://www.w3.org/Graphics/SVG/1.1/DTD/svg11.dtd"><svg t="1782104598813" class="icon" viewBox="0 0 1024 1024" version="1.1" xmlns="http://www.w3.org/2000/svg" p-id="145793" xmlns:xlink="http://www.w3.org/1999/xlink" width="200" height="200"><path d="M511.360401 740.655516l-349.860594 281.423513c-6.395989 5.116791-14.071176-0.639599-14.071175-9.593984V280.144314c0-12.152379 8.314786-22.385961 18.548368-22.385961h693.964797c10.233582 0 18.548368 10.233582 18.548368 22.385961v731.701132c0 8.954384-8.314786 14.071176-14.071176 9.593984l-353.058588-280.783914z m0-67.797482M851.627011 207.86964H171.73339c-14.071176 0-25.583956-11.51278-25.583956-25.583956V25.583956c0-14.071176 11.51278-25.583956 25.583956-25.583956h680.53322c14.071176 0 25.583956 11.51278 25.583956 25.583956v156.701728c-0.639599 14.071176-12.152379 25.583956-26.223555 25.583956z" fill="#FA9A0D" p-id="145794"></path></svg>
