<?xml version="1.0" standalone="no"?><!DOCTYPE svg PUBLIC "-//W3C//DTD SVG 1.1//EN" "http://www.w3.org/Graphics/SVG/1.1/DTD/svg11.dtd"><svg t="1782101592899" class="icon" viewBox="0 0 1024 1024" version="1.1" xmlns="http://www.w3.org/2000/svg" p-id="66634" xmlns:xlink="http://www.w3.org/1999/xlink" width="200" height="200"><path d="M394.90012 156.7c-15.2 0-25.9-16.5-25.9-31.4 0-15.1 10.9-26.1 25.9-26.1H634.00012c15 0 25.9 11 25.9 26.1 0 14.8-10.7 31.4-25.9 31.4H394.90012z m-124.7 81.7c-13.9 0.4-25.6-10.5-26-24.4V31.4c0-19.4 10-31.4 26-31.4 15 0 25.9 10.9 25.9 26.1V207c1.8 9.9 0.4 16.4-3.9 21.7-5.6 6.3-13.6 9.8-22 9.7z m488.5 0c-13.9 0.4-25.5-10.5-25.9-24.4V31.4c0-15.2 10.9-26.2 25.9-26.2 15 0 25.9 11 25.9 26.2v180.9c1.5 7.4 0.6 11.7-2.6 15.7-5.9 6.7-14.4 10.5-23.3 10.4z m-613.2 785.5C65.00012 1023.6-0.09988 958.2 0.00012 877.7V245.5C0.00012 162.2 62.60012 99.3 145.50012 99.3c15 0 25.9 11 25.9 26.1 0 15.2-10.9 26.1-25.9 26.1-52.6 6.6-88.5 45.2-88.5 94v632.2c0 47.3 41.3 88.8 88.5 88.8h737.9c47.1 0 88.4-41.5 88.4-88.8V245.5c0-47.2-41.3-88.8-88.4-88.8-14.7 0-31.1-10.7-31.1-26.2 0-15.1 10.9-26 25.9-26 82.9 0 145.5 62.8 145.5 146.2v627c2 37.3-11.6 73.8-37.6 100.6-26.5 28.6-63.7 45.1-102.7 45.6H145.50012z" p-id="66635" fill="#1296db"></path><path d="M711.10012 358.4c-36 3.1-91.4 9-166.4 17.6-75 8.6-143 13.7-203.9 15.2v75h339.8c21.9 0 46.1-0.8 72.7-2.3v46.9c-25-1.5-49.2-2.3-72.7-2.3H340.80012c-1.6 31.3-4.3 64.1-8.2 98.4-3.9 34.4-11.4 70.7-22.3 109s-25 70.7-42.2 97.3c-9.4-7.8-27.4-16.4-53.9-25.8 25-23.4 43.7-58.2 56.3-104.3C283.00012 637 290.00012 582 291.60012 517.9c1.5-64.1 2.3-118.7 2.3-164.1 76.5-1.5 156.2-7.8 239.1-18.8 82.8-10.9 131.3-20.3 145.3-28.1 7.8 17.1 18.7 34.3 32.8 51.5zM704.00012 709.9c0 59.4 1.5 100.8 4.7 124.2h-49.2v-49.2H429.80012v53.9h-46.9c1.5-26.6 2.3-69.5 2.3-128.9 0-60.9-0.8-103.9-2.3-128.9h323.4c-1.5 25-2.3 68-2.3 128.9z m-44.5 37.5V620.9H429.80012v126.6h229.7z" p-id="66636" fill="#1296db"></path></svg>
