<?xml version="1.0" standalone="no"?><!DOCTYPE svg PUBLIC "-//W3C//DTD SVG 1.1//EN" "http://www.w3.org/Graphics/SVG/1.1/DTD/svg11.dtd"><svg t="1782105251164" class="icon" viewBox="0 0 1024 1024" version="1.1" xmlns="http://www.w3.org/2000/svg" p-id="162650" xmlns:xlink="http://www.w3.org/1999/xlink" width="200" height="200"><path d="M512 723.141838c-30.715559 0-55.615669 24.90011-55.615669 55.615668s24.90011 55.615669 55.615669 55.615669 55.615669-24.90011 55.615669-55.615669-24.90011-55.615669-55.615669-55.615668z m30.620391 36.465516l-49.770543 49.770544c-3.154853 3.154853-8.315386 3.154853-11.470239 0-3.15383-3.15383-3.15383-8.315386 0-11.469216l49.770543-49.770544c3.15383-3.15383 8.315386-3.15383 11.469216 0 3.154853 3.15383 3.154853 8.314363 0.001023 11.469216z" p-id="162651" fill="#13227a"></path><path d="M797.927101 511.151679V273.012977c-39.593763 22.678512-126.70782 42.434461-310.651202-14.932084-126.692471-39.510876-213.59061-3.715625-261.203 29.010731v224.060055c0 10.881838 7.491625 20.008706 17.597796 22.514783v140.540873h-2.336208c-8.428973 0-15.261589 6.833639-15.261588 15.261589v67.290569c0 59.883879 40.631396 110.736057 95.686292 126.355803a31.139208 31.139208 0 0 0-0.189311 3.388167v29.522383c0 17.09433 13.986549 31.080879 31.080879 31.08088h7.766894c17.09433 0 31.080879-13.986549 31.080879-31.08088v-27.969005h241.003959v27.969005c0 17.09433 13.986549 31.080879 31.080879 31.08088h7.766895c17.09433 0 31.080879-13.986549 31.080879-31.08088v-29.522383c0-1.14508-0.067538-2.273786-0.189312-3.388167 55.054897-15.619746 95.687316-66.471924 95.687316-126.355803v-67.290569c0-8.428973-6.833639-15.261589-15.261589-15.261589h-2.336208v-140.540873c10.104125-2.506077 17.59575-11.633968 17.59575-22.514783zM512 845.062632c-36.619012 0-66.305125-29.686113-66.305125-66.305126s29.686113-66.305125 66.305125-66.305125 66.305125 29.686113 66.305125 66.305125-29.686113 66.305125-66.305125 66.305126zM757.537206 674.207335H266.463818v-139.855258H757.537206v139.855258z" p-id="162652" fill="#13227a"></path><path d="M658.305157 101.756545h-99.29754a0.388856 0.388856 0 0 1-0.388857-0.388856c0-13.46057-11.012821-24.475438-24.474414-24.475438h-44.288692c-13.46057 0-24.474414 11.012821-24.474414 24.473391 0 0.214894-0.173962 0.388856-0.388857 0.388856h-99.298563c-76.79299 0-139.621944 62.829977-139.621945 139.622968v24.25952c0 0.311085 0.341784 0.497327 0.598634 0.321318 47.739281-32.613792 134.440945-67.945485 260.604367-28.600385 183.64253 57.272401 270.771937 37.675064 310.455751 15.043625a0.384763 0.384763 0 0 0 0.194428-0.338715V241.380536c0.002047-76.79299-62.827931-139.623991-139.619898-139.623991z" p-id="162653" fill="#13227a"></path></svg>
