<?xml version="1.0" standalone="no"?><!DOCTYPE svg PUBLIC "-//W3C//DTD SVG 1.1//EN" "http://www.w3.org/Graphics/SVG/1.1/DTD/svg11.dtd"><svg t="1782102216366" class="icon" viewBox="0 0 1024 1024" version="1.1" xmlns="http://www.w3.org/2000/svg" p-id="86060" xmlns:xlink="http://www.w3.org/1999/xlink" width="200" height="200"><path d="M672 987.2l1.6-1.6c19.2-11.2 25.6-35.2 14.4-54.4l-100.8-172.8c-11.2-19.2-35.2-25.6-54.4-14.4l-1.6 1.6c-19.2 11.2-25.6 35.2-14.4 54.4l100.8 172.8c11.2 17.6 35.2 25.6 54.4 14.4z" fill="#E1E1DF" p-id="86061"></path><path d="M360 987.2l-1.6-1.6c-19.2-11.2-25.6-35.2-14.4-54.4l100.8-172.8c11.2-19.2 35.2-25.6 54.4-14.4l1.6 1.6c19.2 11.2 25.6 35.2 14.4 54.4l-100.8 172.8c-11.2 17.6-35.2 25.6-54.4 14.4z" fill="#E1E1DF" p-id="86062"></path><path d="M830.4 824H193.6c-70.4 0-128-57.6-128-128V241.6c0-70.4 57.6-128 128-128h635.2c70.4 0 128 57.6 128 128v454.4c1.6 70.4-56 128-126.4 128zM793.6 92.8H230.4c-16 0-30.4-14.4-30.4-30.4 0-16 14.4-30.4 30.4-30.4h564.8c16 0 30.4 14.4 30.4 30.4-1.6 16-14.4 30.4-32 30.4z" fill="#4E8DF6" p-id="86063"></path><path d="M289.6 721.6c-22.4 0-41.6-17.6-41.6-40V438.4c0-22.4 19.2-40 41.6-40 22.4 0 41.6 17.6 41.6 40v243.2c0 22.4-19.2 40-41.6 40zM516.8 721.6c-22.4 0-41.6-17.6-41.6-40v-416c0-22.4 19.2-40 41.6-40 22.4 0 41.6 17.6 41.6 40v416c0 22.4-19.2 40-41.6 40zM747.2 721.6c-22.4 0-41.6-17.6-41.6-40V347.2c0-22.4 19.2-40 41.6-40 22.4 0 41.6 17.6 41.6 40v334.4c0 22.4-19.2 40-41.6 40z" fill="#2166CC" p-id="86064"></path><path d="M217.6 529.6a72 70.4 0 1 0 144 0 72 70.4 0 1 0-144 0Z" fill="#FAFEFD" p-id="86065"></path><path d="M444.8 356.8a72 70.4 0 1 0 144 0 72 70.4 0 1 0-144 0Z" fill="#FAFEFD" p-id="86066"></path><path d="M681.6 438.4a72 70.4 0 1 0 144 0 72 70.4 0 1 0-144 0Z" fill="#FAFEFD" p-id="86067"></path><path d="M275.260445 544.460508a20.8 20.8 0 1 0 29.415128-29.416155 20.8 20.8 0 1 0-29.415128 29.416155Z" fill="#2166CC" p-id="86068"></path><path d="M496 356.8a20.8 20.8 0 1 0 41.6 0 20.8 20.8 0 1 0-41.6 0Z" fill="#2166CC" p-id="86069"></path><path d="M732.8 438.4a20.8 20.8 0 1 0 41.6 0 20.8 20.8 0 1 0-41.6 0Z" fill="#2166CC" p-id="86070"></path></svg>
