<?xml version="1.0" standalone="no"?><!DOCTYPE svg PUBLIC "-//W3C//DTD SVG 1.1//EN" "http://www.w3.org/Graphics/SVG/1.1/DTD/svg11.dtd"><svg t="1782100416692" class="icon" viewBox="0 0 1024 1024" version="1.1" xmlns="http://www.w3.org/2000/svg" p-id="30219" xmlns:xlink="http://www.w3.org/1999/xlink" width="200" height="200"><path d="M949.908333 415.820833zM949.441667 410.079167zM470.683333 695.383333c-14.583333-13.533333-23.7625-32.841667-23.7625-54.2875 0-40.983333 33.1875-74.175 74.170834-74.175 27.4875 0 51.495833 15.045833 64.3125 37.35l329.583333-261.754166c18.695833 17.054167 31.391667 40.6375 34.3875 67.008333-5.975-53.375-51.225-94.879167-106.195833-94.879167H163.816667c-59.033333 0-106.8875 47.854167-106.8875 106.8875v495.4625c0 39.816667 21.783333 74.520833 54.070833 92.9125a108.475 108.475 0 0 1-18.991667-13.779166l378.675-300.745834zM948.841667 933.183333zM894.054167 1011.016667c28.370833-15.383333 48.966667-43.241667 54.5-76.208334-5.5375 32.820833-26.175 60.741667-54.5 76.208334zM114.725 1011.929167zM118.666667 1013.879167c-0.704167-0.329167-1.408333-0.658333-2.104167-1.004167 0.7 0.345833 1.404167 0.675 2.104167 1.004167zM127.070833 1017.395833l-0.0125-0.004166 0.0125 0.004166zM122.783333 1015.708333z" fill="#FA9F1D" p-id="30220"></path><path d="M949.908333 415.820833c-0.016667-0.333333-0.058333-0.6625-0.079166-0.995833a98.704167 98.704167 0 0 0-0.3875-4.741667l-0.070834-0.5625c-2.995833-26.370833-15.691667-49.95-34.3875-67.008333l-329.583333 261.754167a73.658333 73.658333 0 0 1 9.8625 36.825c0 29.645833-17.479167 55.275-42.6375 67.083333v59.883333c0 17.3625-14.170833 31.533333-31.533333 31.533334s-31.533333-14.170833-31.533334-31.533334v-59.883333a74.1125 74.1125 0 0 1-18.875-12.791667L92.008333 996.125a108.691667 108.691667 0 0 0 18.991667 13.779167l0.8125 0.466666c0.958333 0.5375 1.9375 1.05 2.916667 1.558334 0.608333 0.320833 1.220833 0.6375 1.8375 0.945833 0.695833 0.345833 1.4 0.675 2.104166 1.004167a105.320833 105.320833 0 0 0 8.3875 3.508333l0.0125 0.004167a105.7 105.7 0 0 0 36.745834 6.604166h679.358333c18.391667 0 35.729167-4.7125 50.879167-12.983333 28.325-15.466667 48.9625-43.383333 54.5-76.208333 0.0875-0.5125 0.195833-1.020833 0.270833-1.533334l0.0125-0.0875c0.8-5.245833 1.220833-10.6125 1.220833-16.070833V421.529167c0.004167-1.9125-0.05-3.816667-0.15-5.708334z" fill="#FBAD48" p-id="30221"></path><path d="M503.495833 57.520833c142.0875 0 257.241667 115.154167 257.241667 257.120834h57.516667C818.254167 140.904167 677.35 0 503.495833 0 329.758333 0 188.7375 140.904167 188.7375 314.641667H246.375c0-141.966667 115.154167-257.120833 257.120833-257.120834z" fill="#CBCBCB" p-id="30222"></path><path d="M521.095833 566.920833c-40.983333 0-74.170833 33.191667-74.170833 74.175 0 21.445833 9.179167 40.754167 23.7625 54.2875a74.1125 74.1125 0 0 0 18.875 12.791667v59.883333c0 17.3625 14.170833 31.533333 31.533333 31.533334s31.533333-14.170833 31.533334-31.533334v-59.883333c25.158333-11.808333 42.6375-37.433333 42.6375-67.083333 0-13.420833-3.625-25.966667-9.8625-36.825-12.8125-22.3-36.825-37.345833-64.308334-37.345834z" fill="#49472E" p-id="30223"></path></svg>
