<?xml version="1.0" standalone="no"?><!DOCTYPE svg PUBLIC "-//W3C//DTD SVG 1.1//EN" "http://www.w3.org/Graphics/SVG/1.1/DTD/svg11.dtd"><svg t="1782107139019" class="icon" viewBox="0 0 1652 1024" version="1.1" xmlns="http://www.w3.org/2000/svg" p-id="184305" xmlns:xlink="http://www.w3.org/1999/xlink" width="322.65625" height="200"><path d="M904.897443 471.575666h-147.831864v36.708587H886.942156l-176.560323 175.762311 120.898933 120.898933 184.739954-185.537967v-18.7533H904.897443v-129.078564z m0 0" fill="#FFCB99" p-id="184306"></path><path d="M479.157635 508.483756H497.910935v-111.123277c0-17.955287 6.583605-34.314549 17.157274-47.481759l51.471824-62.045492c9.775656-12.169695 25.336905-20.349325 42.494179-20.349326h398.008865c-2.394038-3.192051-4.189567-7.381618-7.381618-9.775656L948.189636 195.463251c-10.573669-12.169695-26.134918-20.349325-43.292193-20.349326H460.404335c-17.157274 0-32.718523 8.179631-42.494179 20.349326L366.438333 257.508743c-10.573669 13.167211-17.157274 29.326969-17.157275 47.481759v462.448395c0 40.898154 33.516536 74.41469 74.41469 74.41469H497.910935V527.237056l-18.7533-18.7533zM458.80831 211.822512h444.493108l34.314548 36.708587H428.483825l30.324485-36.708587z m0 0" fill="#FFCB99" p-id="184307"></path><path d="M576.515192 341.699089h439.705031V304.990502H606.640174l-30.124982 36.708587z m0 0" fill="#FFCB99" p-id="184308"></path><path d="M1147.692826 349.87872l-51.471823-62.045492c-10.573669-12.169695-26.134918-20.349325-43.292193-20.349326H609.034212c-17.157274 0-32.718523 8.179631-42.494179 20.349326l-51.471824 62.045492c-10.573669 13.167211-17.157274 29.326969-17.157274 47.481759v463.246408c0 40.898154 33.516536 74.41469 74.41469 74.41469h518.907798c40.898154 0 74.41469-33.516536 74.41469-74.41469V397.360479c-0.798013-17.955287-7.381618-34.314549-17.955287-47.481759z m-131.672106 269.728313l-185.537967 185.537967-120.10092-120.10092-83.392334-83.392334h129.876577v-129.876577H904.897443v129.876577h129.876577l-18.7533 17.955287z m0-277.907944H576.515192l30.324485-36.708587h444.493108l34.314549 36.708587h-69.626614z m0 0" fill="#1afa29" p-id="184309"></path><path d="M359.854727 1024c-32.718523 0-49.077785-26.134918-61.247479-45.686231-12.169695-19.551313-17.955287-27.730943-29.326969-27.730943-10.573669 0-17.157274 8.179631-29.326969 27.730943-11.371682 19.551313-27.730943 45.686231-61.247479 45.686231-32.718523 0-49.077785-26.134918-61.24748-45.686231-12.169695-19.551313-17.955287-27.730943-29.326969-27.730943-10.573669 0-18.7533-8.179631-18.7533-18.7533 0-10.573669 8.179631-18.7533 18.7533-18.7533 32.718523 0 49.077785 26.134918 61.24748 45.686231 12.169695 19.551313 17.955287 27.730943 29.326969 27.730943 10.573669 0 17.157274-8.179631 29.326969-27.730943 11.371682-19.551313 27.730943-45.686231 61.247479-45.686231 32.718523 0 49.077785 26.134918 61.247479 45.686231 12.169695 19.551313 17.955287 27.730943 29.326969 27.730943 11.371682 0 17.157274-8.977644 29.326969-27.730943 11.371682-19.551313 27.730943-45.686231 61.24748-45.686231 10.573669 0 18.7533 8.179631 18.7533 18.7533 0 10.573669-8.179631 18.7533-18.7533 18.7533-11.371682 0-17.157274 8.179631-29.326969 27.730943-11.371682 18.7533-27.730943 45.686231-61.24748 45.686231z m0 0" fill="#FFC879" p-id="184310"></path><path d="M133.61811 585.292485h104.539671v104.539671h-104.539671v-104.539671z m1156.120987-252.571039l55.66139-56.459403h-111.123277l55.461887 56.459403z m0 0M1253.03051 968.538113c0 18.7533 9.97516 35.910574 26.134918 45.287224 16.159758 9.37665 36.110077 9.37665 52.269836 0 16.159758-9.37665 26.134918-26.533924 26.134918-45.287224 0-28.927963-23.341873-52.269836-52.269836-52.269836s-52.269836 23.341873-52.269836 52.269836z m0 0" fill="#FFF7EC" p-id="184311"></path><path d="M1258.816103 83.541961l-79.202767-79.202767c-5.785593-5.785593-14.763236-5.785593-20.349325 0l-79.202767 79.202767c-5.785593 5.785593-5.785593 14.763236 0 20.349325l79.202767 79.202767c5.785593 5.785593 14.763236 5.785593 20.349325 0l79.202767-79.202767c5.586089-5.586089 5.586089-14.563733 0-20.349325z m-89.975939 68.629097L1109.986723 93.317617l58.853441-58.853441 58.853441 58.853441-58.853441 58.853441zM203.843233 231.373825c-49.077785 0-89.975939 40.100141-89.975939 89.975939s40.100141 89.975939 89.975939 89.975939 89.975939-40.100141 89.975938-89.975939c-0.199503-49.875798-40.898154-89.975939-89.975938-89.975939z m0 141.447762c-28.528956 0-52.269836-23.74088-52.269836-52.269836 0-28.528956 23.74088-52.269836 52.269836-52.269836 28.528956 0 52.269836 23.74088 52.269835 52.269836 0 28.528956-23.74088 52.269836-52.269835 52.269836z m0 0" fill="#FFC879" p-id="184312"></path></svg>
