<?xml version="1.0" standalone="no"?><!DOCTYPE svg PUBLIC "-//W3C//DTD SVG 1.1//EN" "http://www.w3.org/Graphics/SVG/1.1/DTD/svg11.dtd"><svg t="1782102190244" class="icon" viewBox="0 0 1024 1024" version="1.1" xmlns="http://www.w3.org/2000/svg" p-id="83740" xmlns:xlink="http://www.w3.org/1999/xlink" width="200" height="200"><path d="M818.944 791.104L618.24 960v-138.368c0-16.448 16.32-30.528 32.64-30.528h168.064z m-128-648.832a128 128 0 0 1 128 128v488H618.24c-14.08 0-30.4 16.448-30.4 32.832V960H256a128 128 0 0 1-128-128V273.28a128 128 0 0 1 127.104-128l435.008-3.008zM272.704 638.656a36.992 36.992 0 0 0-37.312 37.504c0 21.12 16.32 37.568 37.312 37.568a38.464 38.464 0 0 0 37.376-37.568 36.992 36.992 0 0 0-37.376-37.504z m358.848 3.008H418.112a31.04 31.04 0 1 0 0 62.08h213.44a31.04 31.04 0 0 0 0-62.08z m131.2-575.424a128 128 0 0 1 128 128v387.712l-0.384 9.152a100.288 100.288 0 0 1-48.384 76.928V243.456a128 128 0 0 0-128-128h-0.896l-435.008 2.944a127.424 127.424 0 0 0-62.08 16.576A127.808 127.808 0 0 1 326.976 69.12l434.944-2.944h0.896zM272.768 467.456a36.992 36.992 0 0 0-37.312 37.504c0 21.12 16.32 37.504 37.312 37.504a36.992 36.992 0 0 0 37.376-37.504 36.992 36.992 0 0 0-37.376-37.504z m358.848 5.312H418.112a31.04 31.04 0 0 0 0 62.08h213.44a31.04 31.04 0 0 0 0-62.08zM272.64 298.56a36.992 36.992 0 0 0-37.312 37.504c0 21.12 16.32 37.568 37.312 37.568a38.464 38.464 0 0 0 37.376-37.568 36.992 36.992 0 0 0-37.376-37.504z m358.848 5.312H418.112a31.04 31.04 0 1 0 0 62.08h213.44a31.04 31.04 0 0 0 0-62.08z" fill="#1296db" p-id="83741"></path></svg>
