<?xml version="1.0" standalone="no"?><!DOCTYPE svg PUBLIC "-//W3C//DTD SVG 1.1//EN" "http://www.w3.org/Graphics/SVG/1.1/DTD/svg11.dtd"><svg t="1782101628521" class="icon" viewBox="0 0 1024 1024" version="1.1" xmlns="http://www.w3.org/2000/svg" p-id="69015" xmlns:xlink="http://www.w3.org/1999/xlink" width="200" height="200"><path d="M270.98825375 361.55090656V139.20223156h565.11018187l77.38912125 54.89539782v167.45327718z" fill="#00C697" p-id="69016"></path><path d="M809.14167125 979.50348688H193.42061094C124.33274469 979.50348688 68.18769594 923.35843813 68.18769594 854.27057188V238.54951156c0-69.08786625 56.14504875-125.232915 125.232915-125.232915h615.72106031c69.08786625 0 125.232915 56.14504875 125.232915 125.232915v615.72106031c0 69.08786625-56.14504875 125.232915-125.232915 125.232915zM193.42061094 155.09065531c-46.05857719 0-83.45885625 37.48953937-83.45885625 83.45885625v615.72106031c0 46.05857719 37.48953937 83.45885625 83.45885625 83.45885625h615.72106031c46.05857719 0 83.45885625-37.48953937 83.45885625-83.45885625V238.54951156c0-46.05857719-37.48953937-83.45885625-83.45885625-83.45885625H193.42061094z" fill="#333333" p-id="69017"></path><path d="M335.97012313 222.66108781h-15.977685c-25.97489531 0-47.1297075-21.2440725-47.1297075-47.1297075V99.92747562c0-25.97489531 21.2440725-47.1297075 47.1297075-47.12970749h15.977685c25.97489531 0 47.1297075 21.2440725 47.12970656 47.1297075v75.60390468c0 25.97489531-21.2440725 47.1297075-47.12970656 47.1297075z" fill="#FFFFFF" p-id="69018"></path><path d="M327.93665 243.54811719c-41.86331906 0-75.96094875-34.09762875-75.96094875-75.96094875V107.96094875c0-41.86331906 34.09762875-75.96094875 75.96094875-75.96094875s75.96094875 34.09762875 75.96094875 75.96094875v59.62621969c0.08926125 41.86331906-34.00836844 75.96094875-75.96094875 75.96094875z m0-169.86331969c-18.92329125 0-34.27615031 15.35285906-34.27615031 34.27615125v59.62621969c0 18.92329125 15.35285906 34.27615031 34.27615031 34.27615125s34.27615031-15.35285906 34.27615031-34.27615125V107.96094875c0-18.92329125-15.35285906-34.27615031-34.27615031-34.27615125z" fill="#333333" p-id="69019"></path><path d="M670.16259125 222.66108781h15.977685c25.97489531 0 47.1297075-21.2440725 47.1297075-47.1297075V99.92747562c0-25.97489531-21.2440725-47.1297075-47.1297075-47.12970749h-15.977685c-25.97489531 0-47.1297075 21.2440725-47.12970656 47.1297075v75.60390468c0 25.97489531 21.15481125 47.1297075 47.12970656 47.1297075z" fill="#FFFFFF" p-id="69020"></path><path d="M678.10680312 243.54811719c-41.86331906 0-75.96094875-34.09762875-75.96094781-75.96094875V107.96094875c0-41.86331906 34.09762875-75.96094875 75.96094781-75.96094875s75.96094875 34.09762875 75.96094876 75.96094875v59.62621969c0.08926125 41.86331906-34.00836844 75.96094875-75.96094875 75.96094875z m1e-8-169.86331969c-18.92329125 0-34.27615031 15.35285906-34.27615032 34.27615125v59.62621969c0 18.92329125 15.35285906 34.27615031 34.27615032 34.27615125s34.27615031-15.35285906 34.27615125-34.27615125V107.96094875c0-18.92329125-15.35285906-34.27615031-34.27615125-34.27615125z" fill="#333333" p-id="69021"></path><path d="M101.30345656 382.34867469h820.2175725" fill="#FFFFFF" p-id="69022"></path><path d="M101.30345656 361.46164531h820.2175725v41.77405875H101.30345656z" fill="#333333" p-id="69023"></path><path d="M504.13748656 882.65550875l-86.31520218-12.22873031v-11.60390532L540.28811469 535.60948438H358.91015094c0-25.0822875-0.62482594-49.62900938-0.62482594-74.71129782l14.72803406-12.22873031h259.03486688l12.22873125 59.98326375V525.16596969L522.43595281 869.17712656l-18.29846625 13.47838219z" fill="#333333" p-id="69024"></path></svg>
