<?xml version="1.0" standalone="no"?><!DOCTYPE svg PUBLIC "-//W3C//DTD SVG 1.1//EN" "http://www.w3.org/Graphics/SVG/1.1/DTD/svg11.dtd"><svg t="1782101570482" class="icon" viewBox="0 0 1024 1024" version="1.1" xmlns="http://www.w3.org/2000/svg" p-id="65210" xmlns:xlink="http://www.w3.org/1999/xlink" width="200" height="200"><path d="M310 155h60v150h-60zM660 155h60v150h-60z" fill="#1296db" p-id="65211"></path><path d="M310 214h60v85h-60zM660 214h60v85h-60z" fill="#1296db" p-id="65212"></path><path d="M750 214v115H630.2v-24h-0.2v-91H400v115H280V214h-99v612h662V214h-93z m63 582H211V425h602v371z" fill="#1296db" p-id="65213"></path><path d="M470.2 751.3c-5.3-5.5-12-11.3-19.9-17.3 24.9-20.8 41.4-41.2 49.3-61.1 7.8-18.7 11.6-48.5 11.6-89.2v-100h134.5v230c0 22.5-11.7 33.8-35.2 33.8-14.5 0-31.9-0.3-52.1-0.9-1.2-7.6-2.8-15.3-4.6-23.3 20.2 1.1 36.6 1.7 49 1.7 12.5 0 18.7-5.6 18.7-16.8v-55.1h-91.3c-5.7 35.6-25.7 68.3-60 98.2z m-91.9-258.4h95.9V686h-72.9v20.7h-23V492.9z m154.8 140h88.4v-54h-86.1c0.2 19.5-0.5 37.5-2.3 54z m88.4-127.8h-86.1v53.4h86.1v-53.4zM451.2 665.2v-66.7h-49.9v66.7h49.9z m0-151.6h-49.9v64.7h49.9v-64.7z" p-id="65214" fill="#1296db"></path></svg>
