<?xml version="1.0" standalone="no"?><!DOCTYPE svg PUBLIC "-//W3C//DTD SVG 1.1//EN" "http://www.w3.org/Graphics/SVG/1.1/DTD/svg11.dtd"><svg t="1782102063238" class="icon" viewBox="0 0 1024 1024" version="1.1" xmlns="http://www.w3.org/2000/svg" p-id="79521" xmlns:xlink="http://www.w3.org/1999/xlink" width="200" height="200"><path d="M742.3 700.4H199.8c-35.3 0-64-28.7-64-64V320c0-35.3 28.7-64 64-64h542.5c35.3 0 64 28.7 64 64v316.5c0 35.3-28.6 63.9-64 63.9z" fill="#76FF9D" p-id="79522"></path><path d="M896.2 416c-6.6 0-12-5.4-12-12v-56c0-6.6 5.4-12 12-12s12 5.4 12 12v56c0 6.6-5.4 12-12 12z" fill="#333333" p-id="79523"></path><path d="M832.2 716.1H195c-41.9 0-76-34.1-76-76V259c0-41.9 34.1-76 76-76h637.2c41.9 0 76 34.1 76 76v29c0 6.6-5.4 12-12 12s-12-5.4-12-12v-29c0-28.7-23.3-52-52-52H195c-28.7 0-52 23.3-52 52v381.1c0 28.7 23.3 52 52 52h637.2c28.7 0 52-23.3 52-52V473c0-6.6 5.4-12 12-12s12 5.4 12 12v167.1c0 41.9-34.1 76-76 76z" fill="#333333" p-id="79524"></path><path d="M591.2 843.8H432.8l37.6-152h82.8l38 152z m-127.7-24h97l-26-104h-45.2l-25.8 104zM141.8 602.1h743.5v24H141.8z" fill="#333333" p-id="79525"></path><path d="M788 843.8H236c-6.6 0-12-5.4-12-12s5.4-12 12-12h552c6.6 0 12 5.4 12 12s-5.4 12-12 12z" fill="#333333" p-id="79526"></path></svg>
