<?xml version="1.0" standalone="no"?><!DOCTYPE svg PUBLIC "-//W3C//DTD SVG 1.1//EN" "http://www.w3.org/Graphics/SVG/1.1/DTD/svg11.dtd"><svg t="1782108175819" class="icon" viewBox="0 0 1024 1024" version="1.1" xmlns="http://www.w3.org/2000/svg" p-id="196148" xmlns:xlink="http://www.w3.org/1999/xlink" width="200" height="200"><path d="M640 256a384 384 0 1 1 0 768 384 384 0 0 1 0-768z m-575.488 512h112.713143c12.653714 45.787429 31.890286 88.868571 56.685714 128H64.512a64 64 0 1 1 0-128z m552.667429-289.645714a45.641143 45.641143 0 0 0-45.641143 45.641143v168.886857a45.641143 45.641143 0 0 0 45.641143 46.226285h135.606857a45.641143 45.641143 0 0 0 45.641143-46.226285 45.641143 45.641143 0 0 0-45.641143-45.641143h-89.234286V523.995429a45.641143 45.641143 0 0 0-46.372571-45.641143zM177.225143 512a480.548571 480.548571 0 0 0-17.261714 128H64.512a64 64 0 1 1 0-128h112.713143z m174.811428-256a482.596571 482.596571 0 0 0-118.125714 128H64.512a64 64 0 1 1 0-128h287.451429zM959.488 63.926857A64 64 0 0 0 895.488 0H64a64 64 0 0 0 0 128h831.488a64 64 0 0 0 64-64z" p-id="196149" fill="#d81e06"></path></svg>
