<?xml version="1.0" standalone="no"?><!DOCTYPE svg PUBLIC "-//W3C//DTD SVG 1.1//EN" "http://www.w3.org/Graphics/SVG/1.1/DTD/svg11.dtd"><svg t="1782103020600" class="icon" viewBox="0 0 1024 1024" version="1.1" xmlns="http://www.w3.org/2000/svg" p-id="99942" xmlns:xlink="http://www.w3.org/1999/xlink" width="200" height="200"><path d="M141 134.03l735 0 0 696-735 0 0-696Z" fill="#DBCCAC" p-id="99943"></path><path d="M840.67 114H176.33A55.4 55.4 0 0 0 121 169.36V794.7a55.4 55.4 0 0 0 55.33 55.3H268l-8.48 8.48a20 20 0 1 0 28.28 28.28l34.65-34.65a19.86 19.86 0 0 0 1.81-2.12h381.47a19.86 19.86 0 0 0 1.81 2.12l34.65 34.65a20 20 0 0 0 28.28-28.28L762 850h78.68A55.4 55.4 0 0 0 896 794.7V169.36A55.4 55.4 0 0 0 840.67 114zM856 169.36v172.81H528.5V154h312.17A15.35 15.35 0 0 1 856 169.36zM528.5 382.17H856v189.49H528.5zM161 794.7V169.36A15.35 15.35 0 0 1 176.33 154H488.5v656H176.33A15.35 15.35 0 0 1 161 794.7zM840.67 810H528.5V611.66H856v183A15.35 15.35 0 0 1 840.67 810z" fill="#887262" p-id="99944"></path><path d="M419.54 427.56a15 15 0 0 0-15 15V497a15 15 0 1 0 30 0v-54.44a15 15 0 0 0-15-15z" fill="#887262" p-id="99945"></path><path d="M684.97 196.57m-16.43 0a16.43 16.43 0 1 0 32.86 0 16.43 16.43 0 1 0-32.86 0Z" fill="#FFFFFF" p-id="99946"></path><path d="M810.19 197.53c-4.38-11-18.85-12.9-27.08-13.09h-52.18a12.14 12.14 0 0 0 0 24.28h51.72a36 36 0 0 1 5.44 0.64c0.12 1.17 0.2 2.49 0.2 3.61v80.89a12.14 12.14 0 0 0 24.28 0V213c0-2.26-0.17-9.94-2.38-15.47z" fill="#FFFFFF" p-id="99947"></path></svg>
