<?xml version="1.0" standalone="no"?><!DOCTYPE svg PUBLIC "-//W3C//DTD SVG 1.1//EN" "http://www.w3.org/Graphics/SVG/1.1/DTD/svg11.dtd"><svg t="1782108126612" class="icon" viewBox="0 0 1024 1024" version="1.1" xmlns="http://www.w3.org/2000/svg" p-id="195863" xmlns:xlink="http://www.w3.org/1999/xlink" width="200" height="200"><path d="M493.511111 647.111111c-7.111111-2.844444-12.8-14.222222-12.8-22.755555V200.533333c0-31.288889-24.177778-56.888889-56.888889-56.888889-31.288889 0-56.888889 24.177778-56.888889 56.888889v423.822223c0 8.533333-2.844444 17.066667-12.8 22.755555-36.977778 24.177778-58.311111 64-58.311111 108.088889 0 71.111111 54.044444 129.422222 125.155556 129.422222s129.422222-58.311111 129.422222-129.422222c0-44.088889-19.911111-85.333333-56.888889-108.088889zM423.822222 768c-21.333333 0-38.4-17.066667-38.4-38.4 0-17.066667 11.377778-31.288889 25.6-36.977778 0-1.422222-1.422222-2.844444-1.422222-4.266666V320c0-7.111111 7.111111-14.222222 14.222222-14.222222s14.222222 7.111111 14.222222 14.222222v372.622222c14.222222 5.688889 25.6 19.911111 25.6 35.555556-1.422222 22.755556-18.488889 39.822222-39.822222 39.822222zM645.688889 510.577778c0 56.888889 44.088889 102.4 98.133333 102.4 54.044444 0 98.133333-45.511111 98.133334-102.4 0-38.4-52.622222-118.044444-98.133334-174.933334-42.666667 56.888889-98.133333 136.533333-98.133333 174.933334z" fill="#20A8D8" p-id="195864"></path><path d="M512 0C228.977778 0 0 228.977778 0 512s228.977778 512 512 512 512-228.977778 512-512S795.022222 0 512 0z m-86.755556 910.222222c-86.755556 0-156.444444-71.111111-156.444444-156.444444 0-54.044444 28.444444-102.4 71.111111-130.844445V199.111111c0-45.511111 36.977778-85.333333 85.333333-85.333333 46.933333 0 85.333333 38.4 88.177778 85.333333v423.822222c42.666667 28.444444 71.111111 75.377778 71.111111 130.844445-1.422222 85.333333-72.533333 156.444444-159.288889 156.444444z m320-268.8c-72.533333 0-129.422222-58.311111-129.422222-130.844444s129.422222-219.022222 129.422222-219.022222 129.422222 146.488889 129.422223 219.022222-56.888889 130.844444-129.422223 130.844444z" fill="#20A8D8" p-id="195865"></path></svg>
