<?xml version="1.0" standalone="no"?><!DOCTYPE svg PUBLIC "-//W3C//DTD SVG 1.1//EN" "http://www.w3.org/Graphics/SVG/1.1/DTD/svg11.dtd"><svg t="1782099851721" class="icon" viewBox="0 0 1024 1024" version="1.1" xmlns="http://www.w3.org/2000/svg" p-id="14401" xmlns:xlink="http://www.w3.org/1999/xlink" width="200" height="200"><path d="M512 983.466667c-204.8 0-369.066667-166.4-371.2-371.2 0-147.2 185.6-401.066667 296.533333-537.6 34.133333-40.533333 93.866667-46.933333 134.4-14.933334 6.4 4.266667 10.666667 8.533333 14.933334 14.933334 108.8 138.666667 296.533333 390.4 296.533333 537.6-2.133333 206.933333-166.4 371.2-371.2 371.2z m0-878.933334c-10.666667 0-19.2 4.266667-25.6 12.8-177.066667 219.733333-281.6 405.333333-281.6 497.066667 0 168.533333 136.533333 307.2 307.2 307.2s307.2-136.533333 307.2-307.2c0-91.733333-104.533333-279.466667-281.6-499.2-6.4-6.4-14.933333-10.666667-25.6-10.666667z" fill="#0000FF" p-id="14402"></path><path d="M437.333333 834.133333c-6.4 0-10.666667-2.133333-14.933333-4.266666-61.866667-32-110.933333-85.333333-136.533333-149.333334-6.4-17.066667 2.133333-34.133333 19.2-40.533333 17.066667-6.4 34.133333 2.133333 40.533333 17.066667 21.333333 51.2 59.733333 91.733333 108.8 117.333333 14.933333 8.533333 21.333333 27.733333 12.8 42.666667-8.533333 12.8-19.2 19.2-29.866667 17.066666z" fill="#0000FF" p-id="14403"></path></svg>
