<?xml version="1.0" standalone="no"?><!DOCTYPE svg PUBLIC "-//W3C//DTD SVG 1.1//EN" "http://www.w3.org/Graphics/SVG/1.1/DTD/svg11.dtd"><svg t="1782100367454" class="icon" viewBox="0 0 1024 1024" version="1.1" xmlns="http://www.w3.org/2000/svg" p-id="26980" xmlns:xlink="http://www.w3.org/1999/xlink" width="200" height="200"><path d="M186.24 0h651.52Q1024 0 1024 186.24v651.52Q1024 1024 837.76 1024H186.24Q0 1024 0 837.76V186.24Q0 0 186.24 0z" fill="#3689F5" p-id="26981"></path><path d="M328.64 272A58.24 58.24 0 0 1 388.8 224h246.4a60.8 60.8 0 0 1 60.16 48 100.8 100.8 0 0 1 104.64 96v96a26.24 26.24 0 0 1-52.48 0v-96a50.24 50.24 0 0 0-52.16-48 58.24 58.24 0 0 1-60.16 48h-246.4a60.48 60.48 0 0 1-60.16-48 50.24 50.24 0 0 0-52.16 48V704a50.24 50.24 0 0 0 52.16 48H512a24 24 0 1 1 0 48h-183.36A100.8 100.8 0 0 1 224 704V368a100.8 100.8 0 0 1 104.64-96z m78.72 0a24 24 0 1 0 0 48h209.28a24 24 0 1 0 0-48z" fill="#FFFFFF" p-id="26982"></path><path d="M381.12 464H512a24 24 0 1 0 0-48h-130.88a24 24 0 1 0 0 48z m0 96h78.4a24 24 0 1 0 0-48h-78.4a24 24 0 1 0 0 48zM761.6 668.48l33.6 32a18.88 18.88 0 0 1-1.6 26.88c-9.6 7.68-18.88 7.68-24.32 1.92l-33.92-32a92.16 92.16 0 0 1-123.2-9.6 104.64 104.64 0 0 1 0-142.72 89.92 89.92 0 0 1 67.2-28.8 97.92 97.92 0 0 1 67.2 28.8 100.48 100.48 0 0 1 28.16 71.36 87.68 87.68 0 0 1-13.12 52.16z m-82.24 9.6a51.84 51.84 0 0 0 41.28-19.52 66.88 66.88 0 0 0 0-88.32 58.56 58.56 0 0 0-41.28-19.52 52.48 52.48 0 0 0-41.28 19.52 66.88 66.88 0 0 0 0 88.32 52.48 52.48 0 0 0 41.28 19.52z" fill="#FFFFFF" p-id="26983"></path></svg>
