<?xml version="1.0" standalone="no"?><!DOCTYPE svg PUBLIC "-//W3C//DTD SVG 1.1//EN" "http://www.w3.org/Graphics/SVG/1.1/DTD/svg11.dtd"><svg t="1782108088693" class="icon" viewBox="0 0 1024 1024" version="1.1" xmlns="http://www.w3.org/2000/svg" p-id="193775" xmlns:xlink="http://www.w3.org/1999/xlink" width="200" height="200"><path d="M601.632 320.064h-179.2a102.4 102.4 0 0 0-102.4 102.4v179.2a102.4 102.4 0 0 0 102.4 102.4h179.2a102.4 102.4 0 0 0 102.4-102.4v-179.2a102.4 102.4 0 0 0-102.4-102.4z" fill="#1296db" p-id="193776"></path><path d="M979.2 556.8a44.8 44.8 0 1 0 0-89.6H896v-64h83.2a44.8 44.8 0 1 0 0-89.6h-85.12a203.36 203.36 0 0 0-183.68-183.584V44.8a44.8 44.8 0 0 0-89.6 0V128h-64V44.8a44.8 44.8 0 0 0-89.6 0V128h-64V44.8a44.8 44.8 0 0 0-89.6 0v85.12a203.648 203.648 0 0 0-183.648 183.616H44.8a44.8 44.8 0 1 0 0 89.6H128v64H44.8a44.8 44.8 0 0 0 0 89.6H128v64H44.8a44.8 44.8 0 1 0 0 89.6h85.12a203.36 203.36 0 0 0 183.68 183.488v85.12a44.8 44.8 0 0 0 89.6 0v-83.2h64v83.2a44.8 44.8 0 0 0 89.6 0v-83.2h64v83.2a44.8 44.8 0 0 0 89.6 0v-85.12a203.36 203.36 0 0 0 183.584-183.552H979.2a44.8 44.8 0 1 0 0-89.6H896V556.8zM800 646.4a153.6 153.6 0 0 1-153.6 153.6h-268.8A153.6 153.6 0 0 1 224 646.4v-268.8A153.6 153.6 0 0 1 377.6 224h268.8a153.6 153.6 0 0 1 153.6 153.6v268.8z" fill="#1296db" p-id="193777"></path></svg>
