<?xml version="1.0" standalone="no"?><!DOCTYPE svg PUBLIC "-//W3C//DTD SVG 1.1//EN" "http://www.w3.org/Graphics/SVG/1.1/DTD/svg11.dtd"><svg t="1782104137937" class="icon" viewBox="0 0 1024 1024" version="1.1" xmlns="http://www.w3.org/2000/svg" p-id="118516" xmlns:xlink="http://www.w3.org/1999/xlink" width="200" height="200"><path d="M735.477 881.939H291.891a98.583 98.583 0 0 1-98.584-98.584V241.17a98.583 98.583 0 0 1 98.584-98.584h316.993c8.544-1.606 17.597 0.402 24.194 7l192.27 192.284c4.279 4.264 6.766 9.61 7.57 15.156 0.757 2.317 1.112 4.805 1.112 7.37v418.96a98.537 98.537 0 0 1-98.553 98.583z m-98.583-651.6v109.414h109.413L636.894 230.34z m147.883 158.698h-172.51a24.657 24.657 0 0 1-24.657-24.642V191.87H291.89a49.284 49.284 0 0 0-49.283 49.3v542.185a49.269 49.269 0 0 0 49.284 49.269h443.57a49.284 49.284 0 0 0 49.3-49.269V389.037h0.016z" fill="#576369" p-id="118517"></path></svg>
