<?xml version="1.0" standalone="no"?><!DOCTYPE svg PUBLIC "-//W3C//DTD SVG 1.1//EN" "http://www.w3.org/Graphics/SVG/1.1/DTD/svg11.dtd"><svg t="1782107916505" class="icon" viewBox="0 0 1024 1024" version="1.1" xmlns="http://www.w3.org/2000/svg" p-id="190433" xmlns:xlink="http://www.w3.org/1999/xlink" width="200" height="200"><path d="M538.4 749.8V539.6h211c116.3 0.3 210.3 94.7 210 210.7-0.3 116.1-94.8 210-211.1 209.7-116-0.3-210-94.3-209.9-210.2z m-474.4 0c0-116.1 94.3-210.2 210.6-210.2h210.1v210.2c0 116-94.2 210-210.3 210S64 865.8 64 749.8zM274.6 485c-116 0-210-94-209.9-209.8s94-209.6 210-209.5c116 0 210 94 209.9 209.8v209.8l-210-0.3z m264.3-0.5V275.7C538.1 159.6 631.7 64.8 748 64c116.3-0.8 211.2 92.6 212 208.7 0.8 116.1-92.8 210.9-209.1 211.7h-1.5l-210.5 0.1z" fill="#13227a" p-id="190434"></path></svg>
