<?xml version="1.0" standalone="no"?><!DOCTYPE svg PUBLIC "-//W3C//DTD SVG 1.1//EN" "http://www.w3.org/Graphics/SVG/1.1/DTD/svg11.dtd"><svg t="1782102916288" class="icon" viewBox="0 0 1024 1024" version="1.1" xmlns="http://www.w3.org/2000/svg" p-id="93250" xmlns:xlink="http://www.w3.org/1999/xlink" width="200" height="200"><path d="M512.285 512.435m-448.685 0a448.685 448.685 0 1 0 897.37 0 448.685 448.685 0 1 0-897.37 0Z" fill="#76C2AF" p-id="93251"></path><path d="M458.537 386.242V260.049H276.258c-23.232 0-42.064 18.833-42.064 42.064v476.728c0 23.232 18.833 42.064 42.064 42.064h308.471c23.232 0 42.064-18.833 42.064-42.064V428.306H500.601c-23.232 0-42.064-18.832-42.064-42.064z" fill="#231F20" p-id="93252"></path><path d="M584.729 232.007H276.258c-23.232 0-42.064 18.833-42.064 42.064v476.728c0 23.232 18.833 42.064 42.064 42.064h308.471c23.232 0 42.064-18.833 42.064-42.064V274.071c0.001-23.232-18.832-42.064-42.064-42.064z" fill="#E0E0D1" p-id="93253"></path><path d="M290.28 330.156h140.214v28.043H290.28zM290.28 554.499h280.428v28.043H290.28zM290.28 484.392h280.428v28.043H290.28zM290.28 414.285h280.428v28.043H290.28zM290.28 624.606h280.428v28.043H290.28z" fill="#231F20" p-id="93254"></path><path d="M290.28 694.713h280.428v28.043H290.28z" fill="#231F20" p-id="93255"></path><path d="M838.816 370.313l-99.146-99.146c-16.427-16.427-43.061-16.427-59.488 0l-49.573 49.573-9.915 9.915-228.037 228.036-26.439 132.195-13.219 66.098 66.098-13.219 132.195-26.439 228.036-228.037 9.915-9.915 49.573-49.573c16.427-16.427 16.427-43.061 0-59.488z" fill="#231F20" p-id="93256"></path><path d="M779.328 462.449c-16.427 16.427-43.061 16.427-59.488 0l-99.146-99.146c-16.427-16.427-16.427-43.061 0-59.488l59.488-59.488c16.427-16.427 43.061-16.427 59.488 0l99.146 99.146c16.427 16.427 16.427 43.061 0 59.488l-59.488 59.488z" fill="#C75C5C" p-id="93257"></path><path d="M630.607 293.895l39.658 39.658-237.949 237.95-39.658-39.66z" fill="#E0995E" p-id="93258"></path><path d="M670.266 333.553l79.316 79.316-257.778 257.778-79.316-79.316z" fill="#F5CF87" p-id="93259"></path><path d="M749.582 412.87l39.659 39.658-237.95 237.949-39.658-39.659z" fill="#E0995E" p-id="93260"></path><path d="M352.999 730.144l66.097-13.22-52.878-52.878z" fill="#4F5D73" p-id="93261"></path><path d="M392.657 531.851l-26.439 132.195 52.878 52.878 132.195-26.439-19.829-19.829v-39.658h-79.316v-79.317h-39.659z" fill="#FFFFFF" p-id="93262"></path></svg>
