<?xml version="1.0" standalone="no"?><!DOCTYPE svg PUBLIC "-//W3C//DTD SVG 1.1//EN" "http://www.w3.org/Graphics/SVG/1.1/DTD/svg11.dtd"><svg t="1782104348476" class="icon" viewBox="0 0 1024 1024" version="1.1" xmlns="http://www.w3.org/2000/svg" p-id="132659" xmlns:xlink="http://www.w3.org/1999/xlink" width="200" height="200"><path d="M1024 512q0 12.580571-0.585143 25.088-0.658286 12.580571-1.901714 25.088-1.243429 12.507429-3.072 24.941714t-4.315429 24.795429q-2.413714 12.288-5.485714 24.502857-3.072 12.214857-6.656 24.210286-3.657143 11.995429-7.899429 23.844571-4.242286 11.849143-9.069714 23.405714-4.827429 11.702857-10.24 23.04-5.339429 11.337143-11.264 22.454858-5.851429 11.044571-12.361143 21.869714-6.436571 10.752-13.458285 21.211428-6.948571 10.459429-14.482286 20.48-7.460571 10.166857-15.36 19.894858-8.045714 9.728-16.457143 19.017142-8.484571 9.289143-17.334857 18.212572-8.923429 8.850286-18.285714 17.334857-9.216 8.411429-19.017143 16.384-9.654857 8.045714-19.748572 15.433143-10.093714 7.533714-20.553143 14.482286-10.459429 7.021714-21.211428 13.458285-10.825143 6.436571-21.942857 12.434286-10.971429 5.851429-22.381715 11.264-11.337143 5.339429-22.966857 10.24-11.629714 4.754286-23.405714 8.996571-11.922286 4.242286-23.917714 7.899429-11.995429 3.657143-24.210286 6.656-12.214857 3.072-24.502857 5.485714-12.361143 2.486857-24.795429 4.388572-12.434286 1.755429-24.868571 2.998857-12.580571 1.243429-25.161143 1.901714Q524.580571 1024 512 1024q-12.580571 0-25.088-0.585143-12.580571-0.658286-25.088-1.901714-12.507429-1.243429-24.941714-3.072t-24.795429-4.315429q-12.288-2.413714-24.502857-5.485714-12.214857-3.072-24.210286-6.656-11.995429-3.657143-23.844571-7.899429-11.849143-4.242286-23.405714-9.069714-11.702857-4.827429-23.04-10.24-11.337143-5.339429-22.454858-11.264-11.044571-5.851429-21.869714-12.361143-10.752-6.436571-21.211428-13.458285-10.459429-6.948571-20.48-14.482286-10.166857-7.460571-19.894858-15.36-9.728-8.045714-19.017142-16.457143-9.289143-8.484571-18.212572-17.334857-8.850286-8.923429-17.334857-18.285714-8.411429-9.216-16.384-19.017143-8.045714-9.654857-15.433143-19.748572-7.533714-10.093714-14.482286-20.553143-7.021714-10.459429-13.458285-21.211428-6.436571-10.825143-12.434286-21.942857-5.851429-10.971429-11.264-22.381715-5.339429-11.337143-10.24-22.966857-4.754286-11.629714-8.996571-23.405714-4.242286-11.922286-7.899429-23.917714-3.657143-11.995429-6.656-24.210286-3.072-12.214857-5.485714-24.502857-2.486857-12.361143-4.388572-24.795429-1.755429-12.434286-2.998857-24.868571-1.243429-12.580571-1.901714-25.161143Q0 524.580571 0 512q0-12.580571 0.585143-25.088 0.658286-12.580571 1.901714-25.088 1.243429-12.507429 3.072-24.941714t4.315429-24.795429Q12.288 399.798857 15.36 387.657143q3.072-12.214857 6.656-24.210286 3.657143-11.995429 7.899429-23.844571 4.242286-11.849143 9.069714-23.405715 4.827429-11.702857 10.24-23.04 5.339429-11.337143 11.264-22.454857 5.851429-11.044571 12.361143-21.869714 6.436571-10.752 13.458285-21.211429 6.948571-10.459429 14.482286-20.48 7.460571-10.166857 15.36-19.894857 8.045714-9.728 16.457143-19.017143 8.484571-9.289143 17.334857-18.212571 8.923429-8.850286 18.285714-17.334857 9.216-8.411429 19.017143-16.384 9.654857-8.045714 19.748572-15.433143 10.093714-7.533714 20.553143-14.482286 10.459429-7.021714 21.211428-13.458285 10.825143-6.436571 21.942857-12.434286 10.971429-5.851429 22.381715-11.264 11.337143-5.339429 22.966857-10.24 11.629714-4.754286 23.405714-8.996572 11.922286-4.242286 23.917714-7.899428 11.995429-3.657143 24.210286-6.656 12.214857-3.072 24.502857-5.485714 12.361143-2.486857 24.795429-4.388572 12.434286-1.755429 24.868571-2.998857 12.580571-1.243429 25.161143-1.901714Q499.419429 0 512 0q12.580571 0 25.088 0.585143 12.580571 0.658286 25.088 1.901714 12.507429 1.243429 24.941714 3.072t24.795429 4.315429q12.288 2.413714 24.502857 5.485714 12.214857 3.072 24.210286 6.656 11.995429 3.657143 23.844571 7.899429 11.849143 4.242286 23.405714 9.069714 11.702857 4.827429 23.04 10.24 11.337143 5.339429 22.454858 11.264 11.044571 5.851429 21.869714 12.361143 10.752 6.436571 21.211428 13.458285 10.459429 6.948571 20.48 14.482286 10.166857 7.460571 19.894858 15.36 9.728 8.045714 19.017142 16.457143 9.289143 8.484571 18.212572 17.334857 8.850286 8.923429 17.334857 18.285714 8.411429 9.216 16.384 19.017143 8.045714 9.654857 15.433143 19.748572 7.533714 10.093714 14.482286 20.553143 7.021714 10.459429 13.458285 21.211428 6.436571 10.825143 12.434286 21.942857 5.851429 10.971429 11.264 22.381715 5.339429 11.337143 10.24 22.966857 4.754286 11.629714 8.996571 23.405714 4.242286 11.922286 7.899429 23.917714 3.657143 11.995429 6.656 24.210286 3.072 12.214857 5.485714 24.502857 2.486857 12.361143 4.388572 24.795429 1.755429 12.434286 2.998857 24.868571 1.243429 12.580571 1.901714 25.161143Q1024 499.419429 1024 512z" fill="#739AF0" fill-opacity=".8" p-id="132660"></path><path d="M219.428571 365.714286m36.571429 0l512 0q36.571429 0 36.571429 36.571428l0 0q0 36.571429-36.571429 36.571429l-512 0q-36.571429 0-36.571429-36.571429l0 0q0-36.571429 36.571429-36.571428Z" fill="#FFFFFF" p-id="132661"></path><path d="M219.428571 585.142857m36.571429 0l292.571429 0q36.571429 0 36.571428 36.571429l0 0q0 36.571429-36.571428 36.571428l-292.571429 0q-36.571429 0-36.571429-36.571428l0 0q0-36.571429 36.571429-36.571429Z" fill="#FFFFFF" p-id="132662"></path></svg>
