<?xml version="1.0" standalone="no"?><!DOCTYPE svg PUBLIC "-//W3C//DTD SVG 1.1//EN" "http://www.w3.org/Graphics/SVG/1.1/DTD/svg11.dtd"><svg t="1782104416099" class="icon" viewBox="0 0 1024 1024" version="1.1" xmlns="http://www.w3.org/2000/svg" p-id="134824" xmlns:xlink="http://www.w3.org/1999/xlink" width="200" height="200"><path d="M51.712 713.069714a47.542857 47.542857 0 0 1 67.291429 0l94.354285 94.354286 94.354286-94.354286a47.542857 47.542857 0 1 1 67.291429 67.218286l-128 128a47.542857 47.542857 0 0 1-67.291429 0l-128-128a47.542857 47.542857 0 0 1 0-67.291429zM179.712 115.712a47.542857 47.542857 0 0 1 67.291429 0l128 128a47.542857 47.542857 0 0 1-67.291429 67.291429L213.357714 216.502857l-94.354285 94.354286a47.542857 47.542857 0 1 1-67.291429-67.218286l128-128z" fill="#2c2c2c" p-id="134825"></path><path d="M213.357714 101.814857a47.542857 47.542857 0 0 1 47.542857 47.542857v725.284572a47.542857 47.542857 0 1 1-95.085714 0V149.357714a47.542857 47.542857 0 0 1 47.542857-47.542857zM421.814857 192a47.542857 47.542857 0 0 1 47.542857-47.542857h469.284572a47.542857 47.542857 0 1 1 0 95.085714H469.357714a47.542857 47.542857 0 0 1-47.542857-47.542857zM421.814857 405.357714a47.542857 47.542857 0 0 1 47.542857-47.542857H768a47.542857 47.542857 0 0 1 0 95.085714H469.357714a47.542857 47.542857 0 0 1-47.542857-47.542857zM421.814857 618.642286a47.542857 47.542857 0 0 1 47.542857-47.542857h469.284572a47.542857 47.542857 0 1 1 0 95.085714H469.357714a47.542857 47.542857 0 0 1-47.542857-47.542857zM421.814857 832a47.542857 47.542857 0 0 1 47.542857-47.542857H768a47.542857 47.542857 0 0 1 0 95.085714H469.357714a47.542857 47.542857 0 0 1-47.542857-47.542857z" fill="#2c2c2c" p-id="134826"></path></svg>
