<?xml version="1.0" standalone="no"?><!DOCTYPE svg PUBLIC "-//W3C//DTD SVG 1.1//EN" "http://www.w3.org/Graphics/SVG/1.1/DTD/svg11.dtd"><svg t="1782100451076" class="icon" viewBox="0 0 1024 1024" version="1.1" xmlns="http://www.w3.org/2000/svg" p-id="33921" xmlns:xlink="http://www.w3.org/1999/xlink" width="200" height="200"><path d="M418.834963 184.945778c-106.922667 23.172741-198.580148 85.077333-258.057482 169.528889-43.70963-28.975407-72.38163-77.435259-72.381629-132.295111 0-88.737185 74.998519-160.70163 167.471407-160.70163 79.132444 0 145.464889 52.688593 162.967704 123.467852zM885.229037 362.059852C944.564148 337.370074 986.074074 280.651852 986.074074 214.603852c0-88.737185-74.970074-160.70163-167.471407-160.70163-90.94637 0-164.968296 69.56563-167.405037 156.283259l234.031407 151.874371z" fill="#EC5411" p-id="33922"></path><path d="M937.66163 574.805333c0 225.061926-190.113185 407.495111-424.618667 407.495111-79.075556 0-153.106963-20.745481-216.500148-56.860444-97.251556-74.666667-159.525926-189.534815-159.525926-318.331259 0-225.061926 190.113185-407.495111 424.618667-407.495111 79.075556 0 153.106963 20.745481 216.490666 56.860444 97.261037 74.666667 159.535407 189.534815 159.535408 318.331259z" fill="#FED766" p-id="33923"></path><path d="M513.042963 1001.253926c-79.881481 0-158.226963-20.584296-226.569482-59.515259-65.147259-37.12-119.713185-89.941333-157.800296-152.775111-39.262815-64.758519-60.017778-138.81837-60.017778-214.158223 0-235.131259 199.35763-426.420148 444.397037-426.420148 100.560593 0 199.082667 33.128296 277.418667 93.288296 106.097778 81.455407 166.949926 202.875259 166.949926 333.131852-0.009481 235.140741-199.35763 426.448593-444.378074 426.448593z m0-814.971259c-223.260444 0-404.906667 174.288593-404.906667 388.522666 0 136.485926 76.060444 264.599704 198.485334 334.354963 62.255407 35.460741 133.632 54.196148 206.421333 54.196148 223.250963 0 404.868741-174.307556 404.868741-388.551111 0-118.679704-55.447704-229.319111-152.130371-303.540148-72.391111-55.599407-159.781926-84.982519-252.73837-84.982518z" fill="#333333" p-id="33924"></path><path d="M168.77037 355.166815a20.48 20.48 0 0 1-6.637037-1.109334C87.836444 328.599704 37.925926 260.608 37.925926 184.869926 37.925926 85.807407 121.912889 5.214815 225.137778 5.214815c102.656 0 186.652444 80.128 187.240296 178.612148 0.06637 10.467556-8.722963 18.991407-19.626667 19.057778h-0.113777c-10.856296 0-19.683556-8.410074-19.740445-18.839704-0.464593-77.710222-66.74963-140.932741-147.749926-140.932741-81.455407 0-147.721481 63.592296-147.721481 141.75763 0 59.771259 39.376593 113.417481 97.991111 133.499259 10.268444 3.51763 15.625481 14.364444 11.956148 24.215704-2.891852 7.74637-10.496 12.581926-18.602667 12.581926zM854.309926 351.279407c-7.632593 0-14.895407-4.266667-18.128593-11.415703-4.342519-9.604741 0.256-20.754963 10.258963-24.917334 54.034963-22.490074 88.955259-73.547852 88.95526-130.076444 0-78.165333-66.266074-141.75763-147.721482-141.75763-80.630519 0-145.493333 60.548741-147.674074 137.841778-0.293926 10.458074-9.443556 18.744889-20.271407 18.432-10.903704-0.284444-19.503407-8.988444-19.209482-19.456 1.317926-46.942815 21.380741-90.88 56.471704-123.71437C692.15763 23.324444 738.56 5.214815 787.674074 5.214815c103.224889 0 187.211852 80.592593 187.211852 179.655111 0 71.632593-44.250074 136.343704-112.734815 164.835555-2.56 1.061926-5.224296 1.573926-7.841185 1.573926zM122.614519 1018.785185c-5.082074 0-10.154667-1.867852-14.01363-5.603555-7.68-7.433481-7.632593-19.427556 0.113778-26.794667l118.072889-112.412444c7.736889-7.376593 20.242963-7.319704 27.922963 0.104296 7.68 7.433481 7.632593 19.427556-0.113778 26.794666L136.523852 1013.285926c-3.849481 3.669333-8.874667 5.499259-13.909333 5.499259zM914.830222 1018.785185c-5.025185 0-10.059852-1.829926-13.909333-5.499259L782.848 900.873481c-7.736889-7.367111-7.793778-19.370667-0.113778-26.794666 7.68-7.424 20.186074-7.480889 27.922963-0.104296l118.072889 112.412444c7.736889 7.367111 7.793778 19.370667 0.113778 26.794667-3.858963 3.735704-8.941037 5.603556-14.01363 5.603555zM657.227852 718.165333c-3.602963 0-7.253333-0.948148-10.524445-2.929777l-144.203851-87.400297c-5.726815-3.470222-9.197037-9.519407-9.197037-16.014222V330.770963c0-10.467556 8.836741-18.944 19.740444-18.944s19.740444 8.485926 19.740444 18.944v270.601481l135.006815 81.825186c9.216 5.584593 11.975111 17.284741 6.153482 26.130963-3.754667 5.707852-10.164148 8.836741-16.715852 8.83674z" fill="#333333" p-id="33925"></path></svg>
