<?xml version="1.0" standalone="no"?><!DOCTYPE svg PUBLIC "-//W3C//DTD SVG 1.1//EN" "http://www.w3.org/Graphics/SVG/1.1/DTD/svg11.dtd"><svg t="1782107865557" class="icon" viewBox="0 0 1024 1024" version="1.1" xmlns="http://www.w3.org/2000/svg" p-id="189142" xmlns:xlink="http://www.w3.org/1999/xlink" width="200" height="200"><path d="M660.666182 93.090909a34.909091 34.909091 0 0 1 34.909091 34.909091l-0.046546 54.970182h83.130182a74.472727 74.472727 0 0 1 74.472727 74.472727v111.709091H139.636364v-111.709091a74.472727 74.472727 0 0 1 74.472727-74.472727h62.510545V128a34.909091 34.909091 0 1 1 69.818182 0v54.970182h279.272727V128a34.909091 34.909091 0 0 1 34.909091-34.909091zM853.178182 415.744l-0.046546 89.041455a232.727273 232.727273 0 0 0-271.080727 356.631272H214.109091a74.472727 74.472727 0 0 1-74.472727-74.472727V415.744h713.541818zM295.237818 657.128727h-69.818182v69.818182h69.818182v-69.818182z m156.718546 0h-69.818182v69.818182h69.818182v-69.818182z m-156.718546-139.636363h-69.818182v69.818181h69.818182v-69.818181z m156.718546 0h-69.818182v69.818181h69.818182v-69.818181z" fill="#13227a" p-id="189143"></path><path d="M768 907.636364a186.181818 186.181818 0 1 0 0-372.363637 186.181818 186.181818 0 0 0 0 372.363637z m0-279.272728a23.272727 23.272727 0 0 1 23.272727 23.272728v69.818181h23.272728a23.272727 23.272727 0 0 1 0 46.545455h-46.545455a23.272727 23.272727 0 0 1-23.272727-23.272727v-93.090909a23.272727 23.272727 0 0 1 23.272727-23.272728z" fill="#13227a" p-id="189144"></path></svg>
