<?xml version="1.0" standalone="no"?><!DOCTYPE svg PUBLIC "-//W3C//DTD SVG 1.1//EN" "http://www.w3.org/Graphics/SVG/1.1/DTD/svg11.dtd"><svg t="1782100308775" class="icon" viewBox="0 0 1024 1024" version="1.1" xmlns="http://www.w3.org/2000/svg" p-id="18313" xmlns:xlink="http://www.w3.org/1999/xlink" width="200" height="200"><path d="M908.032 3.072 116.032 3.072C51.904 3.072 0 50.176 0 108.224l0 196.864c0.512 0 1.088 0 1.664 0l0 590.272c0 69.248 56.32 125.568 125.504 125.568l769.6 0c69.248 0 125.568-56.32 125.568-125.568L1022.336 305.088c0.512 0 1.088 0 1.6 0L1023.936 108.224C1024 50.176 972.096 3.072 908.032 3.072zM716.416 797.312c-60.608 42.496-131.264 64.64-203.712 64.64-11.84 0-23.68-0.768-35.584-1.92-2.368-0.256-4.736-0.64-7.104-0.96-6.592-0.832-13.248-1.472-19.84-2.624-1.92-0.32-3.776-0.896-5.76-1.344-4.736-0.896-9.344-2.048-14.016-3.136-7.04-1.664-13.952-3.328-20.8-5.376C405.888 845.44 402.24 844.16 398.528 842.88c-7.744-2.624-15.488-5.312-23.04-8.448-2.24-0.96-4.352-1.984-6.528-2.944-8.832-3.904-17.472-8-25.92-12.544-0.832-0.448-1.6-0.896-2.368-1.344-29.312-16.064-56.256-36.16-80.064-60.032-0.64-0.64-1.28-1.344-1.984-2.048-7.104-7.232-14.016-14.656-20.48-22.528-1.728-2.048-3.264-4.224-4.928-6.336-4.416-5.568-8.96-11.008-13.056-16.832-0.512-0.768-0.896-1.664-1.344-2.432-39.68-57.408-63.104-126.912-63.104-201.92L84.48 505.472l113.984-171.008 113.984 171.008L241.216 505.472c0 63.744 22.336 122.368 59.328 168.704 1.088 1.344 2.112 2.752 3.2 4.096 5.12 6.208 10.496 12.096 16.128 17.792 0.32 0.32 0.576 0.64 0.896 0.96 18.176 18.176 38.912 33.728 61.568 46.144 0.32 0.192 0.576 0.32 0.896 0.512 6.72 3.648 13.632 6.848 20.608 9.92 1.344 0.576 2.688 1.28 4.032 1.792 6.016 2.496 12.16 4.672 18.304 6.72 2.56 0.832 5.056 1.792 7.68 2.56 5.376 1.6 10.816 2.88 16.32 4.16 3.392 0.832 6.784 1.664 10.24 2.368 5.632 1.088 11.392 1.856 17.152 2.624 3.008 0.384 6.016 0.832 8.96 1.152 7.296 0.64 14.72 1.024 22.144 1.088 56.32 0.768 111.424-15.808 158.592-48.768 19.328-13.568 45.952-8.896 59.52 10.496C740.416 757.12 735.68 783.68 716.416 797.312zM825.536 676.48l-114.048-171.008 71.296 0c0-35.584-6.912-69.568-19.456-100.672-10.368-25.792-24.64-49.664-42.048-70.848-0.192-0.192-0.32-0.448-0.512-0.64C693.504 300.288 658.56 273.92 618.688 256.768c-0.64-0.256-1.344-0.64-2.048-0.896-6.656-2.752-13.44-5.184-20.288-7.424-1.92-0.64-3.776-1.344-5.696-1.92C584.64 244.736 578.496 243.2 572.352 241.856c-2.688-0.64-5.44-1.344-8.256-1.92C557.824 238.72 551.424 237.824 545.024 236.992c-2.368-0.256-4.8-0.64-7.168-0.896C529.984 235.328 522.048 234.944 513.984 234.88 458.048 234.368 403.52 250.944 356.736 283.712c-19.328 13.568-46.016 8.896-59.52-10.496-13.504-19.328-8.832-46.016 10.496-59.52 60.544-42.432 131.072-64.256 203.392-64.32 0.32 0 0.576-0.128 0.896-0.128 1.728 0 3.392 0.256 5.056 0.256 9.408 0.192 18.816 0.576 28.288 1.408 3.968 0.384 7.744 1.024 11.648 1.472C562.688 153.216 568.32 153.6 573.952 154.56 576 154.944 577.984 155.584 580.032 155.968c4.224 0.832 8.384 1.92 12.544 2.816 7.552 1.728 15.04 3.584 22.4 5.76 3.136 0.896 6.08 1.984 9.152 3.008 8.448 2.816 16.896 5.824 25.088 9.216 1.408 0.64 2.816 1.28 4.224 1.92 51.456 22.144 96.832 56 132.992 99.904 0.64 0.832 1.216 1.664 1.856 2.432 5.312 6.528 10.688 13.056 15.616 20.096 0.64 0.896 1.024 1.92 1.6 2.88 39.488 57.344 62.72 126.656 62.784 201.408l71.232 0L825.536 676.48z" fill="#1296db" p-id="18314"></path></svg>
