<?xml version="1.0" standalone="no"?><!DOCTYPE svg PUBLIC "-//W3C//DTD SVG 1.1//EN" "http://www.w3.org/Graphics/SVG/1.1/DTD/svg11.dtd"><svg t="1782105278740" class="icon" viewBox="0 0 1024 1024" version="1.1" xmlns="http://www.w3.org/2000/svg" p-id="163246" xmlns:xlink="http://www.w3.org/1999/xlink" width="200" height="200"><path d="M289.28 709.12c-25.6 0-46.08 20.48-46.08 43.52 0 23.04 20.48 43.52 46.08 43.52s46.08-20.48 46.08-43.52c-2.56-23.04-23.04-43.52-46.08-43.52z m-99.84 0c-25.6 0-46.08 20.48-46.08 43.52 0 23.04 20.48 43.52 46.08 43.52s46.08-20.48 46.08-43.52c0-23.04-20.48-43.52-46.08-43.52z m744.96 163.84c0 23.04-17.92 40.96-40.96 40.96H130.56c-23.04 0-40.96-17.92-40.96-40.96v-245.76c0-23.04 17.92-40.96 40.96-40.96h186.88V171.52h38.4V588.8H896c23.04 0 40.96 17.92 40.96 40.96v243.2z m-40.96-345.6H417.28V153.6c0-25.6-20.48-46.08-46.08-46.08h-71.68c-25.6 0-46.08 20.48-46.08 46.08v373.76H130.56c-56.32 0-104.96 46.08-104.96 102.4v245.76c0 56.32 46.08 102.4 104.96 102.4H896c56.32 0 104.96-46.08 104.96-102.4v-245.76c-2.56-56.32-48.64-102.4-107.52-102.4z m-506.88 181.76c-25.6 0-46.08 20.48-46.08 43.52 0 23.04 20.48 43.52 46.08 43.52s46.08-20.48 46.08-43.52c-2.56-23.04-23.04-43.52-46.08-43.52z m232.96-309.76c23.04-43.52 33.28-87.04 33.28-133.12 0-46.08-10.24-89.6-33.28-133.12l-33.28 17.92c20.48 35.84 30.72 74.24 28.16 115.2 0 38.4-10.24 79.36-30.72 115.2l35.84 17.92z m30.72 64l30.72 20.48c48.64-66.56 74.24-143.36 74.24-217.6 0-74.24-10.24-151.04-58.88-217.6l-30.72 20.48c43.52 61.44 53.76 128 53.76 197.12-2.56 69.12-25.6 135.68-69.12 197.12z m-110.08-125.44c7.68-23.04 12.8-46.08 12.8-71.68 0-23.04-5.12-48.64-12.8-71.68l-35.84 12.8c7.68 17.92 10.24 38.4 10.24 58.88 0 20.48-2.56 40.96-10.24 58.88l35.84 12.8z" fill="#d4237a" p-id="163247"></path></svg>
