<?xml version="1.0" standalone="no"?><!DOCTYPE svg PUBLIC "-//W3C//DTD SVG 1.1//EN" "http://www.w3.org/Graphics/SVG/1.1/DTD/svg11.dtd"><svg t="1782108208183" class="icon" viewBox="0 0 1024 1024" version="1.1" xmlns="http://www.w3.org/2000/svg" p-id="197243" xmlns:xlink="http://www.w3.org/1999/xlink" width="200" height="200"><path d="M512 288a32 32 0 0 1 31.488 26.24L544 320v136.576l-48 27.712-4.736 3.328a32 32 0 0 0-11.264 24.192V320a32 32 0 0 1 32-32z m326.464-211.2a547.008 547.008 0 0 1 108.8 108.8 32 32 0 1 1-51.2 38.4 483.008 483.008 0 0 0-96-96 32 32 0 0 1 38.4-51.2z" fill="#1afa29" p-id="197244"></path><path d="M512 96a416 416 0 1 1 0 832 416 416 0 0 1 0-832z m0 64a352 352 0 1 0 0 704 352 352 0 0 0 0-704z m193.984 240a32 32 0 0 1-7.04 40.384l-4.672 3.328-166.272 96a32 32 0 0 1-36.736-52.096l4.736-3.328 166.272-96a32 32 0 0 1 43.712 11.712z" fill="#1afa29" p-id="197245"></path></svg>
