<?xml version="1.0" standalone="no"?><!DOCTYPE svg PUBLIC "-//W3C//DTD SVG 1.1//EN" "http://www.w3.org/Graphics/SVG/1.1/DTD/svg11.dtd"><svg t="1782100267483" class="icon" viewBox="0 0 1024 1024" version="1.1" xmlns="http://www.w3.org/2000/svg" p-id="16416" xmlns:xlink="http://www.w3.org/1999/xlink" width="200" height="200"><path d="M554.11 678.11l-156.23 8.55c-7.94 0.54-18.53 2.74-25 7.42-31 22.49-11.83 55.77 16.25 59.26 0 0 114.89 31 181 18.67 22.86-4.25 51.92-11.44 73.22-26.19 23.65-16.38 60.75-40.61 118.16-92.23 2.51-2.26 9.11-3.42 11.88-5.36 4.37-3.07 17.1-11.4 31.37-8.2 26.87 6 16.8 37.85 9.68 51-19.89 36.56-50.57 103.65-151.15 137.6-9.75 3.29-5.83 10.22-16.12 10.43-20.77 0.43-70.35-12.35-185.2-0.46-16.53 1.71-159.29 45.56-169.5 48.27-14.9 4-30.11 9.46-44 3.58-47.2-20-108.08-111.25-120.51-154.21-14.3-49.41 83.26-103.1 118.89-109.36 0 0 77.41-16.73 301.55 5.76a120.07 120.07 0 0 1 28.78 6.57c3.75 1.36 7.12 2.55 8.33 2.87 6.48 1.77 13.24-5.07 14.95 16.88 0.08-0.05 7.05 16.22-46.35 19.15zM225.89 211.97H329.7v255.65H225.89z" fill="#279ACC" p-id="16417"></path><path d="M395.55 285.3m-25.41 0a25.41 25.41 0 1 0 50.82 0 25.41 25.41 0 1 0-50.82 0Z" fill="#303030" p-id="16418"></path><path d="M663.53 310.84H481.88a25.54 25.54 0 0 1 0-51.08h181.65a25.54 25.54 0 1 1 0 51.08z" fill="#303030" p-id="16419"></path><path d="M395.55 372.22m-25.41 0a25.41 25.41 0 1 0 50.82 0 25.41 25.41 0 1 0-50.82 0Z" fill="#303030" p-id="16420"></path><path d="M663.53 397.75H481.88a25.54 25.54 0 0 1 0-51.08h181.65a25.54 25.54 0 1 1 0 51.08z" fill="#303030" p-id="16421"></path><path d="M760.87 549.69a25.54 25.54 0 0 1-25.54-25.54V214.68H331.18v244.78a25.54 25.54 0 0 1-51.08 0V163.6h506.31v360.55a25.53 25.53 0 0 1-25.54 25.54zM316 879.26a59 59 0 0 1-23.32-4.63C236.3 850.74 165.3 735.52 151.25 687c-3.21-11.1-4.41-28.52 8.07-48.56 29.69-47.61 125-83.2 156.2-88.69 28.07-5.49 138.27-1.63 305.9 10.85 21 1.84 24.7 2.84 26.46 3.32l1.37 0.33c36 8.54 45.29 31.08 46.73 48.58a56 56 0 0 1-13.17 40.13c-12.91 15.35-33.15 23.89-60.15 25.37l-146.53 8c43.3 6.72 128.59 18.11 158.6 13.63l0.65-0.09c4.35-1.47 30.73-12.1 111.18-75.26 0.86-0.69 2.09-1.75 3.42-2.87 3.17-2.69 6.69-5.6 8.82-7.09 21.26-14.87 39.81-14.85 51.61-12.2 15.34 3.45 27.1 12.64 33.1 25.88 11.8 26-3.41 56.37-6.58 62.2-15.09 27.71-73.46 121.27-191.33 161.05a126.24 126.24 0 0 1-37.87 6.71c-6.68 0.22-14.09-0.61-24.33-1.66-28-2.83-74.88-7.6-158.76 1.07-14.27 1.47-61.67 11.9-71.48 14.51l-4.9 1.35c-9.55 2.64-20.53 5.7-32.26 5.7zM324.37 600c-26.21 4.61-103.16 35.69-121.7 65.42-1.39 2.24-2.93 5.32-2.35 7.33 12 41.45 76.88 139.85 112.25 154.85 4.07 1.74 13.62-0.92 22-3.26l5.42-1.49c9.24-2.45 60.35-14 79.37-16 89.06-9.25 141.18-3.92 169.17-1.08 7.81 0.79 14.61 1.32 18.12 1.41a75.63 75.63 0 0 0 22.59-4.05c102.87-34.66 153.68-120.23 162.82-137.02a44.16 44.16 0 0 0 4.63-13.68 22.67 22.67 0 0 0-8.6 4.05c-1.25 0.92-3.23 2.65-5.07 4.2s-3.7 3.13-4.93 4.09c-99 77.71-127.41 85.74-138.29 86-48.51 5.9-168.39-13.43-184.36-16.07-22-2.91-38.36-14.86-44.94-32.86-6.26-17.15-2.12-36.48 10.81-50.46 12.55-13.55 32.44-14.9 42-15.55l156.56-8.58c14.4-0.79 24.31-4.73 25.15-9.91l-0.15-0.62c-1.35-1.41-5.55-2.41-7.41-2.85l-2.17-0.53c-2.68-0.44-11.26-1.32-18-1.91-226.13-16.83-280.38-13.07-289.88-12l-3.06 1.74z m310.37 100.06z m10.43-82zM328.22 599z" fill="#303030" p-id="16422"></path></svg>
